<?xml version="1.0" encoding="iso-8859-1"?>
<!-- Generator: Adobe Illustrator 19.0.0, SVG Export Plug-In . SVG Version: 6.00 Build 0)  -->
<svg version="1.1" id="Layer_1" xmlns="http://www.w3.org/2000/svg" xmlns:xlink="http://www.w3.org/1999/xlink" x="0px" y="0px"
	 viewBox="0 0 512 512" style="enable-background:new 0 0 512 512;" xml:space="preserve">
<g>
	<g>
		<path d="M476.07,404.211h-35.93v-35.93c0-4.961-4.022-8.982-8.982-8.982h-35.93c-4.961,0-8.982,4.022-8.982,8.982v35.93h-35.93
			c-4.961,0-8.982,4.022-8.982,8.982v35.93c0,4.961,4.022,8.982,8.982,8.982h35.93v35.93c0,4.961,4.022,8.982,8.982,8.982h35.93
			c4.961,0,8.982-4.022,8.982-8.982v-35.93h35.93c4.961,0,8.982-4.022,8.982-8.982v-35.93
			C485.053,408.232,481.031,404.211,476.07,404.211z M467.088,440.14h-35.93c-4.961,0-8.982,4.022-8.982,8.982v35.93h-17.965v-35.93
			c0-4.961-4.022-8.982-8.982-8.982h-35.93v-17.965h35.93c4.961,0,8.982-4.022,8.982-8.982v-35.93h17.965v35.93
			c0,4.961,4.022,8.982,8.982,8.982h35.93V440.14z"/>
	</g>
</g>
<g>
	<g>
		<path d="M318.034,342.107l-35.237-15.661c10.703-10.653,18.476-24.299,21.762-39.646c8.281-5.656,13.569-16.426,13.569-28.434
			c0-11.173-4.496-21.217-11.816-27.138v-25.21c0-21.93-11.186-41.882-29.541-53.316v-12.331c0-17.965-14.613-32.581-32.575-32.581
			h-35.53c-17.962,0-32.575,14.616-32.575,32.581v12.325c-18.354,11.425-29.541,31.382-29.541,53.322v25.211
			c-7.32,5.921-11.816,15.965-11.816,27.138c0,12.011,5.288,22.783,13.571,28.436c3.561,16.611,12.374,31.23,24.472,42.215
			l-32.396,12.958c-3.411,1.364-5.647,4.667-5.647,8.34v53.895c0,4.961,4.022,8.982,8.982,8.982h170.667
			c4.961,0,8.982-4.022,8.982-8.982v-53.895C323.368,346.765,321.277,343.548,318.034,342.107z M164.518,206.017
			c0-17.031,9.432-32.384,24.614-40.066c3.022-1.531,4.926-4.629,4.926-8.015v-17.566c0-8.059,6.554-14.616,14.61-14.616h35.53
			c8.056,0,14.61,6.557,14.61,14.616v17.572c0,3.386,1.904,6.482,4.923,8.013c15.184,7.691,24.617,23.042,24.617,40.061v3.524
			l-18.375-18.294c-2.042-2.031-4.935-2.971-7.779-2.5c-2.844,0.463-5.293,2.261-6.587,4.835
			c-10.348,20.603-36.935,29.268-57.417,32.908c-12.984,2.305-25.249,2.934-33.673,3.036V206.017z M165.244,279.61
			c-0.487-3.145-2.602-5.8-5.562-6.976c-3.384-1.344-6.98-6.801-6.98-14.268c0-4.544,1.33-8.345,3.14-10.93
			c1.695,0.056,3.881,0.103,6.517,0.103c22.857,0,77.506-3.546,102.822-35.71l21.309,21.215c0.565,0.562,1.199,1,1.857,1.381v1.685
			c0,3.478,2.009,6.645,5.156,8.127c3.31,1.557,6.66,6.912,6.66,14.129c0,7.465-3.598,12.923-6.981,14.27
			c-2.959,1.175-5.075,3.831-5.559,6.978c-4.605,29.855-30.91,52.368-61.19,52.368C196.163,331.982,169.857,309.467,165.244,279.61z
			 M305.404,395.228H152.702v-38.831l37.806-15.123c10.891,5.549,23.133,8.673,35.925,8.673c14.807,0,28.87-4.19,40.959-11.475
			c0.801,0.861,1.783,1.579,2.925,2.087l35.087,15.594V395.228z"/>
	</g>
</g>
<g>
	<g>
		<path d="M404.211,53.895H89.804c-9.895,0-17.944-8.059-17.944-17.965s8.049-17.965,17.944-17.965h314.407
			c4.961,0,8.982-4.022,8.982-8.982c0-4.961-4.022-8.982-8.982-8.982H89.804C70.003,0,53.895,16.118,53.895,35.93v80.842H35.93
			c-4.961,0-8.982,4.022-8.982,8.982s4.022,8.982,8.982,8.982h17.965v26.947H35.93c-4.961,0-8.982,4.022-8.982,8.982
			s4.022,8.982,8.982,8.982h17.965v26.947H35.93c-4.961,0-8.982,4.022-8.982,8.982c0,4.961,4.022,8.982,8.982,8.982h17.965v26.947
			H35.93c-4.961,0-8.982,4.022-8.982,8.982s4.022,8.982,8.982,8.982h17.965v26.947H35.93c-4.961,0-8.982,4.022-8.982,8.982
			s4.022,8.982,8.982,8.982h17.965v26.947H35.93c-4.961,0-8.982,4.022-8.982,8.982s4.022,8.982,8.982,8.982h17.965v26.947H35.93
			c-4.961,0-8.982,4.022-8.982,8.982s4.022,8.982,8.982,8.982h17.965v26.947H35.93c-4.961,0-8.982,4.022-8.982,8.982
			c0,4.961,4.022,8.982,8.982,8.982h17.965v53.895c0,4.961,4.022,8.982,8.982,8.982h251.509c4.961,0,8.982-4.022,8.982-8.982
			c0-4.961-4.022-8.982-8.982-8.982H71.86v-44.912h17.965c4.961,0,8.982-4.022,8.982-8.982c0-4.961-4.022-8.982-8.982-8.982H71.86
			v-26.947h17.965c4.961,0,8.982-4.022,8.982-8.982s-4.022-8.982-8.982-8.982H71.86v-26.947h17.965c4.961,0,8.982-4.022,8.982-8.982
			s-4.022-8.982-8.982-8.982H71.86v-26.947h17.965c4.961,0,8.982-4.022,8.982-8.982s-4.022-8.982-8.982-8.982H71.86v-26.947h17.965
			c4.961,0,8.982-4.022,8.982-8.982s-4.022-8.982-8.982-8.982H71.86v-26.947h17.965c4.961,0,8.982-4.022,8.982-8.982
			c0-4.961-4.022-8.982-8.982-8.982H71.86v-26.947h17.965c4.961,0,8.982-4.022,8.982-8.982s-4.022-8.982-8.982-8.982H71.86v-26.947
			h17.965c4.961,0,8.982-4.022,8.982-8.982s-4.022-8.982-8.982-8.982H71.86V67.004c5.287,3.068,11.405,4.855,17.944,4.855h305.424
			v242.526c0,4.961,4.022,8.982,8.982,8.982c4.961,0,8.982-4.022,8.982-8.982V62.877C413.193,57.917,409.171,53.895,404.211,53.895z
			"/>
	</g>
</g>
<g>
	<g>
		<rect x="89.825" y="26.947" width="323.368" height="17.965"/>
	</g>
</g>
<g>
</g>
<g>
</g>
<g>
</g>
<g>
</g>
<g>
</g>
<g>
</g>
<g>
</g>
<g>
</g>
<g>
</g>
<g>
</g>
<g>
</g>
<g>
</g>
<g>
</g>
<g>
</g>
<g>
</g>
</svg>
