<?xml version="1.0" encoding="utf-8"?>
<!-- Generator: Adobe Illustrator 16.0.0, SVG Export Plug-In . SVG Version: 6.00 Build 0)  -->
<!DOCTYPE svg PUBLIC "-//W3C//DTD SVG 1.1//EN" "http://www.w3.org/Graphics/SVG/1.1/DTD/svg11.dtd">
<svg version="1.1" xmlns="http://www.w3.org/2000/svg" xmlns:xlink="http://www.w3.org/1999/xlink" x="0px" y="0px" width="1392px"
	 height="500px" viewBox="0 0 1392 500" enable-background="new 0 0 1392 500" xml:space="preserve">
<g id="Capa_2" display="none">
	<linearGradient id="SVGID_1_" gradientUnits="userSpaceOnUse" x1="695.9995" y1="-1" x2="695.9995" y2="545.8501">
		<stop  offset="0" style="stop-color:#DADADA"/>
		<stop  offset="0.0078" style="stop-color:#D4D9DB"/>
		<stop  offset="0.0513" style="stop-color:#B1CFE0"/>
		<stop  offset="0.0962" style="stop-color:#85C3E3"/>
		<stop  offset="0.1414" style="stop-color:#4BB8E4"/>
		<stop  offset="0.1871" style="stop-color:#00AFE4"/>
		<stop  offset="0.2332" style="stop-color:#00A7E4"/>
		<stop  offset="0.2801" style="stop-color:#00A3E4"/>
		<stop  offset="0.3282" style="stop-color:#00A0E4"/>
		<stop  offset="0.3794" style="stop-color:#009FE3"/>
		<stop  offset="0.6685" style="stop-color:#1D71B8"/>
		<stop  offset="0.8876" style="stop-color:#312783"/>
		<stop  offset="1" style="stop-color:#312783"/>
	</linearGradient>
	<linearGradient id="SVGID_2_" gradientUnits="userSpaceOnUse" x1="-0.5" y1="272.4248" x2="1392.5" y2="272.4248">
		<stop  offset="0" style="stop-color:#FFEF26"/>
		<stop  offset="0.0595" style="stop-color:#FFE000"/>
		<stop  offset="0.1303" style="stop-color:#FFD300"/>
		<stop  offset="0.2032" style="stop-color:#FECB00"/>
		<stop  offset="0.2809" style="stop-color:#FDC800"/>
		<stop  offset="0.6685" style="stop-color:#F18F34"/>
		<stop  offset="0.8876" style="stop-color:#E95F32"/>
		<stop  offset="1" style="stop-color:#E3312D"/>
	</linearGradient>
	
		<rect y="-1" display="inline" opacity="0.8" fill="url(#SVGID_1_)" stroke="url(#SVGID_2_)" stroke-miterlimit="10" width="1392" height="546.85"/>
</g>
<g id="Capa_1" display="none">
	<g display="inline" opacity="0.5">
		<g>
			<polygon fill="none" stroke="#F6F6F6" stroke-width="4" stroke-miterlimit="10" points="713.607,421.895 829.688,383.966 
				920.572,465.524 895.385,585.016 779.311,622.947 688.418,541.388 			"/>
		</g>
		<g>
			<polygon fill="none" stroke="#F6F6F6" stroke-width="4" stroke-miterlimit="10" points="571.469,578.115 687.55,540.184 
				778.438,621.743 753.247,741.235 637.174,779.166 546.283,697.607 			"/>
		</g>
		<g>
			<polygon fill="none" stroke="#F6F6F6" stroke-width="4" stroke-miterlimit="10" points="507.995,377.21 624.073,339.277 
				714.963,420.838 689.772,540.33 573.697,578.261 482.807,496.702 			"/>
		</g>
		<g>
			<polygon fill="none" stroke="#F6F6F6" stroke-width="4" stroke-miterlimit="10" points="543.324,477.389 659.401,439.459 
				750.292,521.018 725.101,640.509 609.025,678.438 518.136,596.882 			"/>
		</g>
	</g>
	<g display="inline" opacity="0.5">
		<polygon fill="none" stroke="#F6F6F6" stroke-width="4" stroke-miterlimit="10" points="115.851,426.362 -6.656,214.171 
			115.851,1.984 360.867,1.984 483.371,214.171 360.867,426.362 		"/>
	</g>
	<g display="inline" opacity="0.5">
		<polygon fill="none" stroke="#F6F6F6" stroke-width="4" stroke-miterlimit="10" points="237.221,216.198 114.714,4.008 
			237.221,-208.179 482.236,-208.179 604.74,4.008 482.236,216.198 		"/>
	</g>
	<g display="inline" opacity="0.5">
		<polygon fill="none" stroke="#F6F6F6" stroke-width="4" stroke-miterlimit="10" points="-130.167,426 -252.672,213.808 
			-130.167,1.623 114.849,1.623 237.353,213.808 114.849,426 		"/>
	</g>
	<g display="inline" opacity="0.5">
		<polygon fill="none" stroke="#F6F6F6" stroke-width="4" stroke-miterlimit="10" points="-249.536,208.282 -372.043,-3.908 
			-249.536,-216.095 -4.521,-216.095 117.983,-3.908 -4.521,208.282 		"/>
	</g>
	<g display="inline" opacity="0.5">
		<g>
			<polygon fill="none" stroke="#F6F6F6" stroke-width="4" stroke-miterlimit="10" points="1391.998,-153.263 1253.584,-73.351 
				1115.173,-153.263 1115.173,-313.088 1253.584,-392.999 1391.998,-313.088 			"/>
		</g>
		<g>
			<polygon fill="none" stroke="#F6F6F6" stroke-width="4" stroke-miterlimit="10" points="1391.997,166.386 1253.582,246.297 
				1115.171,166.386 1115.171,6.561 1253.582,-73.351 1391.997,6.561 			"/>
		</g>
		<g>
			<polygon fill="none" stroke="#F6F6F6" stroke-width="4" stroke-miterlimit="10" points="1253.584,408.739 1115.168,488.651 
				976.758,408.739 976.758,248.913 1115.168,169.002 1253.584,248.913 			"/>
		</g>
		<g>
			<polygon fill="none" stroke="#F6F6F6" stroke-width="4" stroke-miterlimit="10" points="1391.998,-153.263 1253.584,-73.351 
				1115.173,-153.263 1115.173,-313.088 1253.584,-392.999 1391.998,-313.088 			"/>
		</g>
		<g>
			<polygon fill="none" stroke="#F6F6F6" stroke-width="4" stroke-miterlimit="10" points="1391.997,166.386 1253.582,246.297 
				1115.171,166.386 1115.171,6.561 1253.582,-73.351 1391.997,6.561 			"/>
		</g>
		<g>
			<polygon fill="none" stroke="#F6F6F6" stroke-width="4" stroke-miterlimit="10" points="1253.584,408.739 1115.168,488.651 
				976.758,408.739 976.758,248.913 1115.168,169.002 1253.584,248.913 			"/>
		</g>
		<g>
			<polygon fill="none" stroke="#F6F6F6" stroke-width="4" stroke-miterlimit="10" points="1387.866,486.619 1249.452,566.531 
				1111.041,486.619 1111.041,326.793 1249.452,246.884 1387.866,326.793 			"/>
		</g>
		<g>
			<polygon fill="none" stroke="#F6F6F6" stroke-width="4" stroke-miterlimit="10" points="1254.31,163.422 1115.896,243.332 
				977.483,163.422 977.483,3.596 1115.896,-76.315 1254.31,3.596 			"/>
		</g>
		<g>
			<polygon fill="none" stroke="#F6F6F6" stroke-width="4" stroke-miterlimit="10" points="1257.024,-73.111 1118.61,6.8 
				980.199,-73.111 980.199,-232.937 1118.61,-312.848 1257.024,-232.937 			"/>
		</g>
	</g>
</g>
<g id="Capa_3" display="none">
	<linearGradient id="SVGID_3_" gradientUnits="userSpaceOnUse" x1="681.0005" y1="529" x2="681.0005" y2="-46.9995">
		<stop  offset="0" style="stop-color:#36A9E1"/>
		<stop  offset="0.0189" style="stop-color:#32A0DA"/>
		<stop  offset="0.0861" style="stop-color:#2A81C2"/>
		<stop  offset="0.1549" style="stop-color:#2B66AD"/>
		<stop  offset="0.2241" style="stop-color:#2E519C"/>
		<stop  offset="0.2939" style="stop-color:#2F4190"/>
		<stop  offset="0.3646" style="stop-color:#2E3688"/>
		<stop  offset="0.4367" style="stop-color:#2D3085"/>
		<stop  offset="0.5124" style="stop-color:#2D2E83"/>
		<stop  offset="0.6341" style="stop-color:#2D2E83"/>
		<stop  offset="0.7063" style="stop-color:#2D3789"/>
		<stop  offset="0.8496" style="stop-color:#2A519D"/>
		<stop  offset="1" style="stop-color:#1D71B8"/>
	</linearGradient>
	
		<rect x="-55" y="-47" display="inline" fill="url(#SVGID_3_)" stroke="#F6F6F6" stroke-width="4" stroke-miterlimit="10" width="1472" height="576"/>
</g>
<g id="nubes" display="none">
	<g display="inline" opacity="0.6">
		<path fill="#FFFFFF" d="M547.374,370.96l-8.999,7.943c5.363,6.072,11.146,11.838,17.201,17.135l7.901-9.035
			C557.813,382.054,552.396,376.647,547.374,370.96z"/>
		<path fill="#FFFFFF" d="M618.402,432.244c7.645,2.585,15.552,4.691,23.502,6.258l2.315-11.779
			c-7.435-1.458-14.826-3.427-21.978-5.85L618.402,432.244z"/>
		<path fill="#FFFFFF" d="M507.402,290.428l-11.766,2.357c1.59,7.914,3.72,15.81,6.336,23.46l11.357-3.876
			C510.883,305.206,508.885,297.825,507.402,290.428z"/>
		<path fill="#FFFFFF" d="M511.332,338.656c3.588,7.225,7.698,14.293,12.209,20.994l9.955-6.689
			c-4.218-6.276-8.058-12.883-11.417-19.645L511.332,338.656z"/>
		<path fill="#FFFFFF" d="M666.769,429.64l-0.768,11.982c3.966,0.252,7.968,0.378,12,0.378c4.11,0,8.249-0.132,12.287-0.396
			l-0.785-11.976C681.99,430.12,674.285,430.125,666.769,429.64z"/>
		<path fill="#FFFFFF" d="M712.044,426.669l2.339,11.766c7.927-1.571,15.822-3.684,23.479-6.281l-3.864-11.371
			C726.846,423.22,719.46,425.193,712.044,426.669z"/>
		<g>
			<path fill="#009FE3" d="M678.001,268.001c-6.631,0-12-5.37-12-12.001c0-6.63,5.369-12,12-12c2.196,0,4.229,0.637,6.001,1.662
				V76.15c-1.998-0.067-3.99-0.15-6.001-0.15c-99.415,0-180,80.585-180,180c0,99.416,80.585,180,180,180
				c2.009,0,4.003-0.084,6.001-0.149V266.338C682.23,267.364,680.195,268.001,678.001,268.001z"/>
			<path fill="#FFFFFF" d="M851.622,267.609l11.977,0.786C863.862,264.304,864,260.128,864,256h-12
				C852,259.899,851.874,263.77,851.622,267.609z"/>
			<path fill="#FFFFFF" d="M574.873,410.817c6.73,4.488,13.813,8.58,21.053,12.144l5.305-10.77
				c-6.774-3.336-13.398-7.151-19.698-11.364L574.873,410.817z"/>
			<path fill="#FFFFFF" d="M822.618,352.791l9.965,6.678c4.501-6.713,8.605-13.794,12.187-21.035l-10.752-5.322
				C830.664,339.88,826.83,346.504,822.618,352.791z"/>
			<path fill="#FFFFFF" d="M842.748,312.123l11.364,3.869c2.604-7.638,4.728-15.546,6.307-23.49l-11.772-2.347
				C847.171,297.586,845.185,304.972,842.748,312.123z"/>
			<path fill="#FFFFFF" d="M792.672,386.878l7.908,9.023c6.06-5.31,11.844-11.089,17.184-17.166l-9.012-7.92
				C803.754,376.498,798.342,381.904,792.672,386.878z"/>
			<path fill="#FFFFFF" d="M754.969,412.102l5.315,10.758c7.224-3.569,14.298-7.661,21.024-12.162l-6.672-9.973
				C768.342,404.933,761.724,408.759,754.969,412.102z"/>
			<path fill="#FFFFFF" d="M504,256c0-95.946,78.055-174,174.001-174c30.869,0,60.774,8.112,87.196,23.453l-17.43,6.972
				l4.459,11.143l33.774-13.507V76h-12v20.796C745.067,79.305,712.093,70,678.001,70C575.441,70,492,153.441,492,256
				c0,4.128,0.138,8.304,0.402,12.391l11.976-0.786C504.125,263.77,504,259.899,504,256z"/>
			<path fill="#FFFFFF" d="M810,214c0-3.457-1.026-6.66-2.724-9.402l32.874-51.654c1.842,0.636,3.791,1.056,5.849,1.056
				c9.925,0,18.001-8.075,18.001-18.001c0-9.925-8.076-17.999-17.999-17.999c-9.924,0-18.001,8.076-18.001,18
				c0,3.457,1.026,6.66,2.724,9.402l-32.874,51.654C796.008,196.42,794.057,196,792,196c-4.733,0-9.013,1.873-12.228,4.867
				l-24.024-14.413c0.113-0.81,0.252-1.614,0.252-2.454c0-9.924-8.076-18-18-18c-9.926,0-18.001,8.075-18.001,18
				c0,3.114,0.87,6.006,2.268,8.562l-37.44,46.801c-0.264-0.107-0.558-0.163-0.828-0.259V106h-6c-82.71,0-150,67.29-150,150
				c0,82.711,67.291,150,150.003,150H684V272.896c6.965-2.484,12-9.084,12-16.896c0-3.114-0.871-6.006-2.269-8.562l37.44-46.801
				c2.112,0.871,4.41,1.362,6.828,1.362c4.732,0,9.012-1.872,12.228-4.866l24.023,14.412c-0.113,0.81-0.252,1.614-0.252,2.453
				c0,9.924,8.076,18.001,18.001,18.001C801.926,231.999,810,223.924,810,214z M846.001,130c3.306,0,6.001,2.695,6.001,6
				c0,3.307-2.695,6.001-6.001,6.001c-3.307,0-6.001-2.694-6.001-6.001C840,132.694,842.694,130,846.001,130z M672,189.741
				c-18.072-0.913-34.428-5.725-48.156-11.796c15.197-29.731,36.366-47.226,48.156-55.26V189.741z M613.338,172.833
				c-13.008-6.918-22.771-14.269-28.199-18.78c19.469-17.749,44.01-30.006,71.172-34.314
				C643.386,130.299,626.34,147.617,613.338,172.833z M608.185,183.838c-7.825,18.33-13.296,40.266-14.046,66.161H540.15
				c1.445-33.646,15.012-64.194,36.412-87.42C582.39,167.56,593.322,176.002,608.185,183.838z M594.137,262
				c0.744,25.902,6.223,47.837,14.047,66.161c-14.863,7.836-25.795,16.278-31.621,21.252
				c-21.406-23.219-34.967-53.765-36.412-87.413H594.137z M613.338,339.166c13.002,25.218,30.048,42.534,42.973,53.094
				c-27.169-4.308-51.709-16.565-71.172-34.313C590.567,353.435,600.33,346.078,613.338,339.166z M624.078,333.957
				c13.681-6.029,29.951-10.788,47.922-11.693v66.93C660.313,381.058,639.282,363.43,624.078,333.957z M672,310.252
				c-20.076,0.906-38.064,6.095-53.045,12.701c-7.105-16.89-12.086-37.092-12.812-60.948h54.966
				c1.813,5.082,5.814,9.084,10.897,10.896v37.351H672L672,310.252z M661.104,249.999h-54.972
				c0.715-23.952,5.616-44.171,12.624-61.031c15.024,6.641,33.085,11.874,53.245,12.779v37.356
				C666.918,240.916,662.916,244.918,661.104,249.999z M678.001,262c-3.307,0-6.001-2.695-6.001-6.001c0-3.307,2.694-6,6.001-6
				c3.306,0,6.001,2.693,6.001,6C684,259.305,681.306,262,678.001,262z M738.001,190c-3.307,0-6.001-2.695-6.001-6.001
				c0-3.307,2.694-6,6.001-6c3.306,0,6,2.694,6,6C744.001,187.305,741.306,190,738.001,190z M792,220c-3.306,0-6.001-2.693-6.001-6
				s2.695-6.001,6.001-6.001c3.307,0,6,2.694,6,6.001S795.307,220,792,220z"/>
		</g>
	</g>
</g>
<g id="Capa_5" display="none">
	<linearGradient id="SVGID_4_" gradientUnits="userSpaceOnUse" x1="694.0005" y1="525" x2="694.0005" y2="-38.9995">
		<stop  offset="0" style="stop-color:#FFEF26"/>
		<stop  offset="0.0595" style="stop-color:#FFE000"/>
		<stop  offset="0.1303" style="stop-color:#FFD300"/>
		<stop  offset="0.2032" style="stop-color:#FECB00"/>
		<stop  offset="0.2809" style="stop-color:#FDC800"/>
		<stop  offset="0.6685" style="stop-color:#F18F34"/>
		<stop  offset="0.8876" style="stop-color:#E95F32"/>
		<stop  offset="1" style="stop-color:#E3312D"/>
	</linearGradient>
	<rect x="-39" y="-39" display="inline" fill="url(#SVGID_4_)" width="1466" height="564"/>
</g>
<g id="Capa_6" display="none">
	<g display="inline" opacity="0.6">
		<polygon fill="#343434" points="753,225 753,238.999 907,238.999 907,448.999 515,448.999 515,238.999 669,238.999 669,225 
			501,225 501,463 921,463 921,225 		"/>
		<path fill="#343434" d="M570.292,267H676v-14H557v7.001c0,11.577-9.421,21-21,21h-7.001v126h7.001c11.578,0,21,9.421,21,21.001
			v7.001h307.61l0.699-6.223c1.281-11.369,10.102-20.202,21.47-21.463l6.223-0.7V281H886c-11.578,0-21.002-9.422-21.002-21.001V253
			H745.999v14h105.708c2.786,13.692,13.601,24.507,27.293,27.294v100.31c-12.83,3.605-22.785,13.565-26.398,26.397H744.473
			c29.693-12.964,50.525-42.581,50.525-76.999c0-35.434-22.47-67.221-55.916-79.094l-4.684,13.196
			c27.875,9.897,46.601,36.379,46.601,65.897c0,38.598-31.402,70-70.001,70c-38.598,0-70-31.402-70-70
			c0-29.519,18.733-56,46.606-65.897l-4.683-13.196c-33.454,11.873-55.923,43.66-55.923,79.094
			c0,34.418,20.832,64.035,50.525,77.001H570.292c-2.787-13.693-13.602-24.508-27.293-27.294v-99.415
			C556.691,291.507,567.505,280.692,570.292,267z"/>
		<path fill="#343434" d="M676,322.999c0,15.443,12.557,28,28,28H711h6.999c7.721,0,14,6.279,14,14.001c0,7.721-6.279,14-14,14h-14
			c-7.72,0-14-6.279-14-14v-7.001h-14V365c0,15.442,12.557,28,28,28v14h14v-14c15.442,0,28-12.558,28-28s-12.558-28.001-28-28.001
			h-7.001h-7c-7.721,0-14-6.279-14-14c0-6.418,4.382-11.983,10.653-13.538l-3.352-13.587C684.756,298.969,676,310.127,676,322.999z"
			/>
		<path fill="#343434" d="M731.999,322.999V330h14v-7.001c0-12.872-8.757-24.03-21.293-27.125l-3.353,13.587
			C727.617,311.016,731.999,316.581,731.999,322.999z"/>
		<path fill="#FFFFFF" stroke="#000000" stroke-width="4" stroke-miterlimit="10" d="M711,350.999L619.999,148h182L711,350.999z"/>
		<path fill="#FFFFFF" stroke="#000000" stroke-width="4" stroke-miterlimit="10" d="M711,141c-30.877,0-56-25.123-56-56
			s25.123-56,56-56c30.878,0,56,25.122,56,56S741.876,141,711,141z"/>
	</g>
</g>
<g id="Capa_7" display="none">
	<linearGradient id="SVGID_5_" gradientUnits="userSpaceOnUse" x1="686.9995" y1="-39" x2="686.9995" y2="553.0005">
		<stop  offset="0" style="stop-color:#3AAA35"/>
		<stop  offset="0.2022" style="stop-color:#36AB4F"/>
		<stop  offset="0.3784" style="stop-color:#31AC60"/>
		<stop  offset="0.4912" style="stop-color:#2FAC66"/>
		<stop  offset="0.9468" style="stop-color:#008D36"/>
	</linearGradient>
	<rect x="-49" y="-39" display="inline" fill="url(#SVGID_5_)" width="1472" height="592"/>
</g>
<g id="Capa_8" display="none">
	<g display="inline" opacity="0.6">
		<path fill="#FFFFFF" d="M868.62,120.549v-0.042l-9.437-0.978c-3.073-36.879-11.124-90.462-32.928-90.462
			c-2.25,0-4.267,0.64-6.258,1.737l-52.881,17.641c-17.41,5.808-35.509,8.747-53.866,8.747h-69.629
			c-62.028,0-112.499,50.469-112.499,112.498c0,50.504,33.462,93.332,79.382,107.507l-39.739,33.116H503v14.063h72.857
			l41.279-34.404l43.488,12.425l14.792,18.492c1.962,2.446,2.82,5.505,2.433,8.62c-0.4,3.108-1.99,5.857-4.5,7.733
			c-4.542,3.403-10.997,2.938-15.012-1.062l-14.196-14.188l-40.07,32.056l8.789,10.982l16.699-13.359v57.078h-47.559l-14.063-7.031
			H503v14.063h61.621l14.063,7.032h50.878v7.031c0,19.385,15.77,35.156,35.157,35.156c19.385,0,35.156-15.771,35.156-35.156v-7.031
			c11.629,0,21.095-9.464,21.095-21.095c0-5.421-2.117-10.321-5.484-14.063c3.375-3.74,5.484-8.642,5.484-14.063
			c0-5.42-2.117-10.321-5.484-14.063c3.375-3.74,5.484-8.641,5.484-14.062c0-5.422-2.117-10.321-5.484-14.063
			c3.375-3.741,5.484-8.642,5.484-14.063c0-11.629-9.464-21.094-21.095-21.094v-14.063h13.374c18.358,0,36.498,2.938,53.915,8.747
			l52.924,17.641c1.989,1.097,4.1,1.736,6.349,1.736c21.804,0,29.679-53.584,32.751-90.462l9.437-0.978v-0.042
			c14.062-0.795,20.396-25.052,20.396-49.141C889.02,145.6,882.683,121.343,868.62,120.549z M806.73,210.998
			c-0.871-12.537-1.392-26.311-1.392-41.308c0-14.997,0.521-28.771,1.392-41.308l47.046,4.704
			c-4.246,9.463-6.251,23.055-6.251,36.604c0,13.549,2.005,27.141,6.251,36.604L806.73,210.998z M845.297,118.102l-37.378-3.741
			c4-40.675,11.791-65.257,17.009-70.354l1.8-0.597C831.199,46.265,840.805,67.598,845.297,118.102z M681.787,348.491
			c3.537-2.65,6.146-6.138,7.882-10.054h10.203c3.881,0,7.032,3.157,7.032,7.031c0,3.875-3.15,7.032-7.032,7.032h-26.121
			C676.584,351.662,679.312,350.341,681.787,348.491z M706.902,373.594c0,3.875-3.149,7.032-7.031,7.032h-28.125
			c-3.882,0-7.032-3.157-7.032-7.032c0-3.874,3.15-7.032,7.032-7.032h28.125C703.753,366.562,706.902,369.72,706.902,373.594z
			 M685.81,429.843c0,11.63-9.463,21.094-21.094,21.094c-11.631,0-21.094-9.463-21.094-21.094v-88.494l4.774,4.767
			c0.788,0.795,1.667,1.441,2.538,2.109c0.577,4.324,2.418,8.22,5.21,11.307c-3.375,3.741-5.484,8.642-5.484,14.063
			s2.117,10.321,5.484,14.063c-3.375,3.741-5.484,8.641-5.484,14.062c0,11.63,9.462,21.095,21.094,21.095h14.062v7.03H685.81z
			 M699.872,408.748h-28.124c-3.883,0-7.032-3.157-7.032-7.031s3.149-7.031,7.032-7.031h28.124c3.881,0,7.032,3.157,7.032,7.031
			S703.753,408.748,699.872,408.748z M706.902,317.345c0,3.874-3.149,7.032-7.031,7.032h-8.248
			c-0.64-4.438-2.341-8.671-5.224-12.276l-1.428-1.786h14.899C703.753,310.313,706.902,313.47,706.902,317.345z M685.81,296.25
			h-12.087l-4.916-6.146l-28.25-8.071c1.025,0.029,2.032,0.155,3.065,0.155h42.187V296.25z M713.245,268.126h-69.622
			c-54.28,0-98.437-44.157-98.437-98.437c0-54.28,44.155-98.436,98.437-98.436h69.629c19.87,0,39.5-3.184,58.358-9.471
			l34.763-11.587c-11.51,29.417-15.096,83.186-15.096,119.494c0,36.308,3.586,90.077,15.096,119.494l-34.763-11.587
			C752.752,271.311,733.122,268.126,713.245,268.126z M826.995,296.06l-1.321-0.442c-5.498-4.288-13.633-28.982-17.746-70.607
			l37.371-3.741C840.755,272.351,831.01,293.592,826.995,296.06z M868.62,204.206c-2.601-3.305-7.032-15.088-7.032-34.516
			c0-19.428,4.43-31.212,7.032-34.517c2.602,3.305,7.032,15.088,7.032,34.517C875.652,189.117,871.222,200.901,868.62,204.206z"/>
		<rect x="903.775" y="162.659" fill="#FFFFFF" width="21.094" height="14.062"/>
		
			<rect x="896.162" y="81.788" transform="matrix(-0.9486 0.3164 -0.3164 -0.9486 1796.0432 -114.0057)" fill="#FFFFFF" width="22.232" height="14.062"/>
		
			<rect x="900.25" y="239.418" transform="matrix(-0.3162 0.9487 -0.9487 -0.3162 1431.8835 -530.951)" fill="#FFFFFF" width="14.063" height="22.233"/>
		<rect x="685.81" y="57.191" fill="#F39200" width="28.125" height="224.997"/>
	</g>
</g>
<g id="Capa_9">
	<linearGradient id="SVGID_6_" gradientUnits="userSpaceOnUse" x1="693.9995" y1="-67" x2="693.9995" y2="577.0005">
		<stop  offset="0.0345" style="stop-color:#936037"/>
		<stop  offset="0.2225" style="stop-color:#AF7E4E"/>
		<stop  offset="0.3864" style="stop-color:#C29560"/>
		<stop  offset="0.4912" style="stop-color:#CA9E67"/>
		<stop  offset="0.9468" style="stop-color:#B17F4A"/>
	</linearGradient>
	<rect x="-67" y="-67" fill="url(#SVGID_6_)" width="1522" height="644"/>
</g>
<g id="Capa_10">
	<g opacity="0.6">
		<circle fill="#1D71B8" cx="583.938" cy="375.259" r="21.982"/>
		<circle fill="#1D71B8" cx="842.308" cy="375.259" r="21.982"/>
		<path fill="#F6F6F6" d="M639.846,367.026h-26.958c-3.619-12.665-15.198-21.983-29.039-21.983
			c-16.646,0-30.125,13.57-30.125,30.126c0,16.646,13.569,30.125,30.125,30.125c13.751,0,25.42-9.318,29.039-21.983h26.958
			c18.093,0,32.839-14.746,32.839-32.84v-50.298c0-4.523-3.709-8.232-8.232-8.232c-4.524,0-8.232,3.709-8.232,8.232v50.298
			C656.312,359.608,648.983,367.026,639.846,367.026z M583.938,389.01c-7.599,0-13.75-6.151-13.75-13.751s6.151-13.75,13.75-13.75
			c7.6,0,13.751,6.15,13.751,13.75C597.689,382.768,591.447,389.01,583.938,389.01z"/>
		<path fill="#F6F6F6" d="M761.703,292.121c-4.522,0-8.232,3.709-8.232,8.232v50.299c0,18.093,14.746,32.839,32.839,32.839h26.959
			c3.619,12.665,15.197,21.983,29.039,21.983c16.646,0,30.125-13.57,30.125-30.126c0-16.646-13.569-30.124-30.125-30.124
			c-13.751,0-25.42,9.317-29.039,21.982H786.4c-9.046,0-16.465-7.417-16.465-16.464v-50.299
			C769.936,295.74,766.227,292.121,761.703,292.121z M842.308,361.418c7.6,0,13.751,6.151,13.751,13.751
			c0,7.599-6.151,13.75-13.751,13.75c-7.599,0-13.751-6.151-13.751-13.75C828.558,367.659,834.8,361.418,842.308,361.418z"/>
		<circle fill="#1D71B8" cx="713.123" cy="434.875" r="21.983"/>
		<path fill="#F6F6F6" d="M722.079,22.986c-33.291,0-64.14,18.184-80.423,46.861c-3.347-0.723-6.694-0.994-10.223-0.994
			c-27.683,0-50.299,22.525-50.299,50.298c0,3.709,0.362,7.328,1.176,10.947C564.127,142.944,553,164.203,553,186.82
			c0,37.815,30.306,71.467,66.22,73.458c0.181,0,0.272,0,0.452,0h178.941c0.181,0,0.361,0,0.543,0c41.523-2.896,74-38.539,74-80.967
			c0-37.09-25.329-69.93-59.888-78.795C806.212,55.916,767.945,22.986,722.079,22.986z M856.872,179.311
			c0,33.292-26.233,62.24-58.439,64.593H619.944c-27.412-1.629-50.571-27.773-50.571-57.083c0-18.998,10.223-36.729,26.597-46.229
			c3.438-1.99,4.976-6.242,3.528-9.951c-1.357-3.619-1.99-7.509-1.99-11.58c0-18.727,15.198-33.924,33.924-33.924
			c3.98,0,7.87,0.723,11.58,1.99c3.981,1.448,8.413-0.362,10.313-4.161C665.81,56.458,692.859,39.36,722.17,39.36
			c39.442,0,72.011,29.493,75.72,68.664c0.361,3.709,3.167,6.695,6.784,7.328C834.347,120.417,856.872,147.919,856.872,179.311z"/>
		<path fill="#F6F6F6" d="M713.123,292.121c-4.523,0-8.231,3.709-8.231,8.232v105.573c-12.395,3.528-21.622,14.837-21.983,28.225
			c-0.182,8.052,2.804,15.742,8.322,21.531c5.519,5.79,13.027,9.137,21.078,9.318h0.725l0,0c16.193,0,29.763-13.209,30.124-29.401
			c0.182-8.052-2.804-15.741-8.322-21.531c-3.799-3.98-8.503-6.785-13.659-8.232V300.263
			C721.355,295.74,717.646,292.121,713.123,292.121z M726.874,435.237c-0.181,7.419-6.333,13.39-13.751,13.39h-0.361
			c-3.709-0.091-7.057-1.629-9.59-4.252c-2.532-2.624-3.89-6.152-3.8-9.861c0.182-7.418,6.333-13.389,13.751-13.389h0.362
			c3.709,0.091,7.056,1.628,9.589,4.252C725.607,428,726.965,431.528,726.874,435.237z"/>
	</g>
</g>
</svg>
