<?xml version="1.0" encoding="utf-8"?>
<!-- Generator: Adobe Illustrator 16.0.0, SVG Export Plug-In . SVG Version: 6.00 Build 0)  -->
<!DOCTYPE svg PUBLIC "-//W3C//DTD SVG 1.1//EN" "http://www.w3.org/Graphics/SVG/1.1/DTD/svg11.dtd">
<svg version="1.1" xmlns="http://www.w3.org/2000/svg" xmlns:xlink="http://www.w3.org/1999/xlink" x="0px" y="0px" width="1392px"
	 height="500px" viewBox="0 0 1392 500" enable-background="new 0 0 1392 500" xml:space="preserve">
<g id="Capa_2">
	<linearGradient id="SVGID_1_" gradientUnits="userSpaceOnUse" x1="695.9995" y1="-1" x2="695.9995" y2="545.8501">
		<stop  offset="0" style="stop-color:#DADADA"/>
		<stop  offset="0.0078" style="stop-color:#D4D9DB"/>
		<stop  offset="0.0513" style="stop-color:#B1CFE0"/>
		<stop  offset="0.0962" style="stop-color:#85C3E3"/>
		<stop  offset="0.1414" style="stop-color:#4BB8E4"/>
		<stop  offset="0.1871" style="stop-color:#00AFE4"/>
		<stop  offset="0.2332" style="stop-color:#00A7E4"/>
		<stop  offset="0.2801" style="stop-color:#00A3E4"/>
		<stop  offset="0.3282" style="stop-color:#00A0E4"/>
		<stop  offset="0.3794" style="stop-color:#009FE3"/>
		<stop  offset="0.6685" style="stop-color:#1D71B8"/>
		<stop  offset="0.8876" style="stop-color:#312783"/>
		<stop  offset="1" style="stop-color:#312783"/>
	</linearGradient>
	<linearGradient id="SVGID_2_" gradientUnits="userSpaceOnUse" x1="-0.5" y1="272.4248" x2="1392.5" y2="272.4248">
		<stop  offset="0" style="stop-color:#FFEF26"/>
		<stop  offset="0.0595" style="stop-color:#FFE000"/>
		<stop  offset="0.1303" style="stop-color:#FFD300"/>
		<stop  offset="0.2032" style="stop-color:#FECB00"/>
		<stop  offset="0.2809" style="stop-color:#FDC800"/>
		<stop  offset="0.6685" style="stop-color:#F18F34"/>
		<stop  offset="0.8876" style="stop-color:#E95F32"/>
		<stop  offset="1" style="stop-color:#E3312D"/>
	</linearGradient>
	<rect y="-1" opacity="0.8" fill="url(#SVGID_1_)" stroke="url(#SVGID_2_)" stroke-miterlimit="10" width="1392" height="546.85"/>
</g>
<g id="Capa_1" display="none">
	<g display="inline" opacity="0.5">
		<g>
			<polygon fill="none" stroke="#F6F6F6" stroke-width="4" stroke-miterlimit="10" points="713.607,421.895 829.688,383.966 
				920.572,465.524 895.385,585.016 779.311,622.947 688.418,541.388 			"/>
		</g>
		<g>
			<polygon fill="none" stroke="#F6F6F6" stroke-width="4" stroke-miterlimit="10" points="571.469,578.115 687.55,540.184 
				778.438,621.743 753.247,741.235 637.174,779.166 546.283,697.607 			"/>
		</g>
		<g>
			<polygon fill="none" stroke="#F6F6F6" stroke-width="4" stroke-miterlimit="10" points="507.995,377.21 624.073,339.277 
				714.963,420.838 689.772,540.33 573.697,578.261 482.807,496.702 			"/>
		</g>
		<g>
			<polygon fill="none" stroke="#F6F6F6" stroke-width="4" stroke-miterlimit="10" points="543.324,477.389 659.401,439.459 
				750.292,521.018 725.101,640.509 609.025,678.438 518.136,596.882 			"/>
		</g>
	</g>
	<g display="inline" opacity="0.5">
		<polygon fill="none" stroke="#F6F6F6" stroke-width="4" stroke-miterlimit="10" points="115.851,426.362 -6.656,214.171 
			115.851,1.984 360.867,1.984 483.371,214.171 360.867,426.362 		"/>
	</g>
	<g display="inline" opacity="0.5">
		<polygon fill="none" stroke="#F6F6F6" stroke-width="4" stroke-miterlimit="10" points="237.221,216.198 114.714,4.008 
			237.221,-208.179 482.236,-208.179 604.74,4.008 482.236,216.198 		"/>
	</g>
	<g display="inline" opacity="0.5">
		<polygon fill="none" stroke="#F6F6F6" stroke-width="4" stroke-miterlimit="10" points="-130.167,426 -252.672,213.808 
			-130.167,1.623 114.849,1.623 237.353,213.808 114.849,426 		"/>
	</g>
	<g display="inline" opacity="0.5">
		<polygon fill="none" stroke="#F6F6F6" stroke-width="4" stroke-miterlimit="10" points="-249.536,208.282 -372.043,-3.908 
			-249.536,-216.095 -4.521,-216.095 117.983,-3.908 -4.521,208.282 		"/>
	</g>
	<g display="inline" opacity="0.5">
		<g>
			<polygon fill="none" stroke="#F6F6F6" stroke-width="4" stroke-miterlimit="10" points="1391.998,-153.263 1253.584,-73.351 
				1115.173,-153.263 1115.173,-313.088 1253.584,-392.999 1391.998,-313.088 			"/>
		</g>
		<g>
			<polygon fill="none" stroke="#F6F6F6" stroke-width="4" stroke-miterlimit="10" points="1391.997,166.386 1253.582,246.297 
				1115.171,166.386 1115.171,6.561 1253.582,-73.351 1391.997,6.561 			"/>
		</g>
		<g>
			<polygon fill="none" stroke="#F6F6F6" stroke-width="4" stroke-miterlimit="10" points="1253.584,408.739 1115.168,488.651 
				976.758,408.739 976.758,248.913 1115.168,169.002 1253.584,248.913 			"/>
		</g>
		<g>
			<polygon fill="none" stroke="#F6F6F6" stroke-width="4" stroke-miterlimit="10" points="1391.998,-153.263 1253.584,-73.351 
				1115.173,-153.263 1115.173,-313.088 1253.584,-392.999 1391.998,-313.088 			"/>
		</g>
		<g>
			<polygon fill="none" stroke="#F6F6F6" stroke-width="4" stroke-miterlimit="10" points="1391.997,166.386 1253.582,246.297 
				1115.171,166.386 1115.171,6.561 1253.582,-73.351 1391.997,6.561 			"/>
		</g>
		<g>
			<polygon fill="none" stroke="#F6F6F6" stroke-width="4" stroke-miterlimit="10" points="1253.584,408.739 1115.168,488.651 
				976.758,408.739 976.758,248.913 1115.168,169.002 1253.584,248.913 			"/>
		</g>
		<g>
			<polygon fill="none" stroke="#F6F6F6" stroke-width="4" stroke-miterlimit="10" points="1387.866,486.619 1249.452,566.531 
				1111.041,486.619 1111.041,326.793 1249.452,246.884 1387.866,326.793 			"/>
		</g>
		<g>
			<polygon fill="none" stroke="#F6F6F6" stroke-width="4" stroke-miterlimit="10" points="1254.31,163.422 1115.896,243.332 
				977.483,163.422 977.483,3.596 1115.896,-76.315 1254.31,3.596 			"/>
		</g>
		<g>
			<polygon fill="none" stroke="#F6F6F6" stroke-width="4" stroke-miterlimit="10" points="1257.024,-73.111 1118.61,6.8 
				980.199,-73.111 980.199,-232.937 1118.61,-312.848 1257.024,-232.937 			"/>
		</g>
	</g>
</g>
<g id="Capa_3" display="none">
	<linearGradient id="SVGID_3_" gradientUnits="userSpaceOnUse" x1="681.0005" y1="529" x2="681.0005" y2="-46.9995">
		<stop  offset="0" style="stop-color:#36A9E1"/>
		<stop  offset="0.0189" style="stop-color:#32A0DA"/>
		<stop  offset="0.0861" style="stop-color:#2A81C2"/>
		<stop  offset="0.1549" style="stop-color:#2B66AD"/>
		<stop  offset="0.2241" style="stop-color:#2E519C"/>
		<stop  offset="0.2939" style="stop-color:#2F4190"/>
		<stop  offset="0.3646" style="stop-color:#2E3688"/>
		<stop  offset="0.4367" style="stop-color:#2D3085"/>
		<stop  offset="0.5124" style="stop-color:#2D2E83"/>
		<stop  offset="0.6341" style="stop-color:#2D2E83"/>
		<stop  offset="0.7063" style="stop-color:#2D3789"/>
		<stop  offset="0.8496" style="stop-color:#2A519D"/>
		<stop  offset="1" style="stop-color:#1D71B8"/>
	</linearGradient>
	
		<rect x="-55" y="-47" display="inline" fill="url(#SVGID_3_)" stroke="#F6F6F6" stroke-width="4" stroke-miterlimit="10" width="1472" height="576"/>
</g>
<g id="nubes" display="none">
	<g display="inline" opacity="0.6">
		<path fill="#FFFFFF" d="M547.374,370.96l-8.999,7.943c5.363,6.072,11.146,11.838,17.201,17.135l7.901-9.035
			C557.813,382.054,552.396,376.647,547.374,370.96z"/>
		<path fill="#FFFFFF" d="M618.402,432.244c7.645,2.585,15.552,4.691,23.502,6.258l2.315-11.779
			c-7.435-1.458-14.826-3.427-21.978-5.85L618.402,432.244z"/>
		<path fill="#FFFFFF" d="M507.402,290.428l-11.766,2.357c1.59,7.914,3.72,15.81,6.336,23.46l11.357-3.876
			C510.883,305.206,508.885,297.825,507.402,290.428z"/>
		<path fill="#FFFFFF" d="M511.332,338.656c3.588,7.225,7.698,14.293,12.209,20.994l9.955-6.689
			c-4.218-6.276-8.058-12.883-11.417-19.645L511.332,338.656z"/>
		<path fill="#FFFFFF" d="M666.769,429.64l-0.768,11.982c3.966,0.252,7.968,0.378,12,0.378c4.11,0,8.249-0.132,12.287-0.396
			l-0.785-11.976C681.99,430.12,674.285,430.125,666.769,429.64z"/>
		<path fill="#FFFFFF" d="M712.044,426.669l2.339,11.766c7.927-1.571,15.822-3.684,23.479-6.281l-3.864-11.371
			C726.846,423.22,719.46,425.193,712.044,426.669z"/>
		<g>
			<path fill="#009FE3" d="M678.001,268.001c-6.631,0-12-5.37-12-12.001c0-6.63,5.369-12,12-12c2.196,0,4.229,0.637,6.001,1.662
				V76.15c-1.998-0.067-3.99-0.15-6.001-0.15c-99.415,0-180,80.585-180,180c0,99.416,80.585,180,180,180
				c2.009,0,4.003-0.084,6.001-0.149V266.338C682.23,267.364,680.195,268.001,678.001,268.001z"/>
			<path fill="#FFFFFF" d="M851.622,267.609l11.977,0.786C863.862,264.304,864,260.128,864,256h-12
				C852,259.899,851.874,263.77,851.622,267.609z"/>
			<path fill="#FFFFFF" d="M574.873,410.817c6.73,4.488,13.813,8.58,21.053,12.144l5.305-10.77
				c-6.774-3.336-13.398-7.151-19.698-11.364L574.873,410.817z"/>
			<path fill="#FFFFFF" d="M822.618,352.791l9.965,6.678c4.501-6.713,8.605-13.794,12.187-21.035l-10.752-5.322
				C830.664,339.88,826.83,346.504,822.618,352.791z"/>
			<path fill="#FFFFFF" d="M842.748,312.123l11.364,3.869c2.604-7.638,4.728-15.546,6.307-23.49l-11.772-2.347
				C847.171,297.586,845.185,304.972,842.748,312.123z"/>
			<path fill="#FFFFFF" d="M792.672,386.878l7.908,9.023c6.06-5.31,11.844-11.089,17.184-17.166l-9.012-7.92
				C803.754,376.498,798.342,381.904,792.672,386.878z"/>
			<path fill="#FFFFFF" d="M754.969,412.102l5.315,10.758c7.224-3.569,14.298-7.661,21.024-12.162l-6.672-9.973
				C768.342,404.933,761.724,408.759,754.969,412.102z"/>
			<path fill="#FFFFFF" d="M504,256c0-95.946,78.055-174,174.001-174c30.869,0,60.774,8.112,87.196,23.453l-17.43,6.972
				l4.459,11.143l33.774-13.507V76h-12v20.796C745.067,79.305,712.093,70,678.001,70C575.441,70,492,153.441,492,256
				c0,4.128,0.138,8.304,0.402,12.391l11.976-0.786C504.125,263.77,504,259.899,504,256z"/>
			<path fill="#FFFFFF" d="M810,214c0-3.457-1.026-6.66-2.724-9.402l32.874-51.654c1.842,0.636,3.791,1.056,5.849,1.056
				c9.925,0,18.001-8.075,18.001-18.001c0-9.925-8.076-17.999-17.999-17.999c-9.924,0-18.001,8.076-18.001,18
				c0,3.457,1.026,6.66,2.724,9.402l-32.874,51.654C796.008,196.42,794.057,196,792,196c-4.733,0-9.013,1.873-12.228,4.867
				l-24.024-14.413c0.113-0.81,0.252-1.614,0.252-2.454c0-9.924-8.076-18-18-18c-9.926,0-18.001,8.075-18.001,18
				c0,3.114,0.87,6.006,2.268,8.562l-37.44,46.801c-0.264-0.107-0.558-0.163-0.828-0.259V106h-6c-82.71,0-150,67.29-150,150
				c0,82.711,67.291,150,150.003,150H684V272.896c6.965-2.484,12-9.084,12-16.896c0-3.114-0.871-6.006-2.269-8.562l37.44-46.801
				c2.112,0.871,4.41,1.362,6.828,1.362c4.732,0,9.012-1.872,12.228-4.866l24.023,14.412c-0.113,0.81-0.252,1.614-0.252,2.453
				c0,9.924,8.076,18.001,18.001,18.001C801.926,231.999,810,223.924,810,214z M846.001,130c3.306,0,6.001,2.695,6.001,6
				c0,3.307-2.695,6.001-6.001,6.001c-3.307,0-6.001-2.694-6.001-6.001C840,132.694,842.694,130,846.001,130z M672,189.741
				c-18.072-0.913-34.428-5.725-48.156-11.796c15.197-29.731,36.366-47.226,48.156-55.26V189.741z M613.338,172.833
				c-13.008-6.918-22.771-14.269-28.199-18.78c19.469-17.749,44.01-30.006,71.172-34.314
				C643.386,130.299,626.34,147.617,613.338,172.833z M608.185,183.838c-7.825,18.33-13.296,40.266-14.046,66.161H540.15
				c1.445-33.646,15.012-64.194,36.412-87.42C582.39,167.56,593.322,176.002,608.185,183.838z M594.137,262
				c0.744,25.902,6.223,47.837,14.047,66.161c-14.863,7.836-25.795,16.278-31.621,21.252
				c-21.406-23.219-34.967-53.765-36.412-87.413H594.137z M613.338,339.166c13.002,25.218,30.048,42.534,42.973,53.094
				c-27.169-4.308-51.709-16.565-71.172-34.313C590.567,353.435,600.33,346.078,613.338,339.166z M624.078,333.957
				c13.681-6.029,29.951-10.788,47.922-11.693v66.93C660.313,381.058,639.282,363.43,624.078,333.957z M672,310.252
				c-20.076,0.906-38.064,6.095-53.045,12.701c-7.105-16.89-12.086-37.092-12.812-60.948h54.966
				c1.813,5.082,5.814,9.084,10.897,10.896v37.351H672L672,310.252z M661.104,249.999h-54.972
				c0.715-23.952,5.616-44.171,12.624-61.031c15.024,6.641,33.085,11.874,53.245,12.779v37.356
				C666.918,240.916,662.916,244.918,661.104,249.999z M678.001,262c-3.307,0-6.001-2.695-6.001-6.001c0-3.307,2.694-6,6.001-6
				c3.306,0,6.001,2.693,6.001,6C684,259.305,681.306,262,678.001,262z M738.001,190c-3.307,0-6.001-2.695-6.001-6.001
				c0-3.307,2.694-6,6.001-6c3.306,0,6,2.694,6,6C744.001,187.305,741.306,190,738.001,190z M792,220c-3.306,0-6.001-2.693-6.001-6
				s2.695-6.001,6.001-6.001c3.307,0,6,2.694,6,6.001S795.307,220,792,220z"/>
		</g>
	</g>
</g>
<g id="Capa_5" display="none">
	<linearGradient id="SVGID_4_" gradientUnits="userSpaceOnUse" x1="694.0005" y1="525" x2="694.0005" y2="-38.9995">
		<stop  offset="0" style="stop-color:#FFEF26"/>
		<stop  offset="0.0595" style="stop-color:#FFE000"/>
		<stop  offset="0.1303" style="stop-color:#FFD300"/>
		<stop  offset="0.2032" style="stop-color:#FECB00"/>
		<stop  offset="0.2809" style="stop-color:#FDC800"/>
		<stop  offset="0.6685" style="stop-color:#F18F34"/>
		<stop  offset="0.8876" style="stop-color:#E95F32"/>
		<stop  offset="1" style="stop-color:#E3312D"/>
	</linearGradient>
	<rect x="-39" y="-39" display="inline" fill="url(#SVGID_4_)" width="1466" height="564"/>
</g>
<g id="Capa_6" display="none">
	<g display="inline" opacity="0.6">
		<polygon fill="#343434" points="753,225 753,238.999 907,238.999 907,448.999 515,448.999 515,238.999 669,238.999 669,225 
			501,225 501,463 921,463 921,225 		"/>
		<path fill="#343434" d="M570.292,267H676v-14H557v7.001c0,11.577-9.421,21-21,21h-7.001v126h7.001c11.578,0,21,9.421,21,21.001
			v7.001h307.61l0.699-6.223c1.281-11.369,10.102-20.202,21.47-21.463l6.223-0.7V281H886c-11.578,0-21.002-9.422-21.002-21.001V253
			H745.999v14h105.708c2.786,13.692,13.601,24.507,27.293,27.294v100.31c-12.83,3.605-22.785,13.565-26.398,26.397H744.473
			c29.693-12.964,50.525-42.581,50.525-76.999c0-35.434-22.47-67.221-55.916-79.094l-4.684,13.196
			c27.875,9.897,46.601,36.379,46.601,65.897c0,38.598-31.402,70-70.001,70c-38.598,0-70-31.402-70-70
			c0-29.519,18.733-56,46.606-65.897l-4.683-13.196c-33.454,11.873-55.923,43.66-55.923,79.094
			c0,34.418,20.832,64.035,50.525,77.001H570.292c-2.787-13.693-13.602-24.508-27.293-27.294v-99.415
			C556.691,291.507,567.505,280.692,570.292,267z"/>
		<path fill="#343434" d="M676,322.999c0,15.443,12.557,28,28,28H711h6.999c7.721,0,14,6.279,14,14.001c0,7.721-6.279,14-14,14h-14
			c-7.72,0-14-6.279-14-14v-7.001h-14V365c0,15.442,12.557,28,28,28v14h14v-14c15.442,0,28-12.558,28-28s-12.558-28.001-28-28.001
			h-7.001h-7c-7.721,0-14-6.279-14-14c0-6.418,4.382-11.983,10.653-13.538l-3.352-13.587C684.756,298.969,676,310.127,676,322.999z"
			/>
		<path fill="#343434" d="M731.999,322.999V330h14v-7.001c0-12.872-8.757-24.03-21.293-27.125l-3.353,13.587
			C727.617,311.016,731.999,316.581,731.999,322.999z"/>
		<path fill="#FFFFFF" stroke="#000000" stroke-width="4" stroke-miterlimit="10" d="M711,350.999L619.999,148h182L711,350.999z"/>
		<path fill="#FFFFFF" stroke="#000000" stroke-width="4" stroke-miterlimit="10" d="M711,141c-30.877,0-56-25.123-56-56
			s25.123-56,56-56c30.878,0,56,25.122,56,56S741.876,141,711,141z"/>
	</g>
</g>
<g id="Capa_7" display="none">
	<linearGradient id="SVGID_5_" gradientUnits="userSpaceOnUse" x1="686.9995" y1="-39" x2="686.9995" y2="553.0005">
		<stop  offset="0" style="stop-color:#3AAA35"/>
		<stop  offset="0.2022" style="stop-color:#36AB4F"/>
		<stop  offset="0.3784" style="stop-color:#31AC60"/>
		<stop  offset="0.4912" style="stop-color:#2FAC66"/>
		<stop  offset="0.9468" style="stop-color:#008D36"/>
	</linearGradient>
	<rect x="-49" y="-39" display="inline" fill="url(#SVGID_5_)" width="1472" height="592"/>
</g>
<g id="Capa_8" display="none">
	<g display="inline" opacity="0.6">
		<path fill="#FFFFFF" d="M868.62,120.549v-0.042l-9.437-0.978c-3.073-36.879-11.124-90.462-32.928-90.462
			c-2.25,0-4.267,0.64-6.258,1.737l-52.881,17.641c-17.41,5.808-35.509,8.747-53.866,8.747h-69.629
			c-62.028,0-112.499,50.469-112.499,112.498c0,50.504,33.462,93.332,79.382,107.507l-39.739,33.116H503v14.063h72.857
			l41.279-34.404l43.488,12.425l14.792,18.492c1.962,2.446,2.82,5.505,2.433,8.62c-0.4,3.108-1.99,5.857-4.5,7.733
			c-4.542,3.403-10.997,2.938-15.012-1.062l-14.196-14.188l-40.07,32.056l8.789,10.982l16.699-13.359v57.078h-47.559l-14.063-7.031
			H503v14.063h61.621l14.063,7.032h50.878v7.031c0,19.385,15.77,35.156,35.157,35.156c19.385,0,35.156-15.771,35.156-35.156v-7.031
			c11.629,0,21.095-9.464,21.095-21.095c0-5.421-2.117-10.321-5.484-14.063c3.375-3.74,5.484-8.642,5.484-14.063
			c0-5.42-2.117-10.321-5.484-14.063c3.375-3.74,5.484-8.641,5.484-14.062c0-5.422-2.117-10.321-5.484-14.063
			c3.375-3.741,5.484-8.642,5.484-14.063c0-11.629-9.464-21.094-21.095-21.094v-14.063h13.374c18.358,0,36.498,2.938,53.915,8.747
			l52.924,17.641c1.989,1.097,4.1,1.736,6.349,1.736c21.804,0,29.679-53.584,32.751-90.462l9.437-0.978v-0.042
			c14.062-0.795,20.396-25.052,20.396-49.141C889.02,145.6,882.683,121.343,868.62,120.549z M806.73,210.998
			c-0.871-12.537-1.392-26.311-1.392-41.308c0-14.997,0.521-28.771,1.392-41.308l47.046,4.704
			c-4.246,9.463-6.251,23.055-6.251,36.604c0,13.549,2.005,27.141,6.251,36.604L806.73,210.998z M845.297,118.102l-37.378-3.741
			c4-40.675,11.791-65.257,17.009-70.354l1.8-0.597C831.199,46.265,840.805,67.598,845.297,118.102z M681.787,348.491
			c3.537-2.65,6.146-6.138,7.882-10.054h10.203c3.881,0,7.032,3.157,7.032,7.031c0,3.875-3.15,7.032-7.032,7.032h-26.121
			C676.584,351.662,679.312,350.341,681.787,348.491z M706.902,373.594c0,3.875-3.149,7.032-7.031,7.032h-28.125
			c-3.882,0-7.032-3.157-7.032-7.032c0-3.874,3.15-7.032,7.032-7.032h28.125C703.753,366.562,706.902,369.72,706.902,373.594z
			 M685.81,429.843c0,11.63-9.463,21.094-21.094,21.094c-11.631,0-21.094-9.463-21.094-21.094v-88.494l4.774,4.767
			c0.788,0.795,1.667,1.441,2.538,2.109c0.577,4.324,2.418,8.22,5.21,11.307c-3.375,3.741-5.484,8.642-5.484,14.063
			s2.117,10.321,5.484,14.063c-3.375,3.741-5.484,8.641-5.484,14.062c0,11.63,9.462,21.095,21.094,21.095h14.062v7.03H685.81z
			 M699.872,408.748h-28.124c-3.883,0-7.032-3.157-7.032-7.031s3.149-7.031,7.032-7.031h28.124c3.881,0,7.032,3.157,7.032,7.031
			S703.753,408.748,699.872,408.748z M706.902,317.345c0,3.874-3.149,7.032-7.031,7.032h-8.248
			c-0.64-4.438-2.341-8.671-5.224-12.276l-1.428-1.786h14.899C703.753,310.313,706.902,313.47,706.902,317.345z M685.81,296.25
			h-12.087l-4.916-6.146l-28.25-8.071c1.025,0.029,2.032,0.155,3.065,0.155h42.187V296.25z M713.245,268.126h-69.622
			c-54.28,0-98.437-44.157-98.437-98.437c0-54.28,44.155-98.436,98.437-98.436h69.629c19.87,0,39.5-3.184,58.358-9.471
			l34.763-11.587c-11.51,29.417-15.096,83.186-15.096,119.494c0,36.308,3.586,90.077,15.096,119.494l-34.763-11.587
			C752.752,271.311,733.122,268.126,713.245,268.126z M826.995,296.06l-1.321-0.442c-5.498-4.288-13.633-28.982-17.746-70.607
			l37.371-3.741C840.755,272.351,831.01,293.592,826.995,296.06z M868.62,204.206c-2.601-3.305-7.032-15.088-7.032-34.516
			c0-19.428,4.43-31.212,7.032-34.517c2.602,3.305,7.032,15.088,7.032,34.517C875.652,189.117,871.222,200.901,868.62,204.206z"/>
		<rect x="903.775" y="162.659" fill="#FFFFFF" width="21.094" height="14.062"/>
		
			<rect x="896.162" y="81.788" transform="matrix(-0.9486 0.3164 -0.3164 -0.9486 1796.0432 -114.0057)" fill="#FFFFFF" width="22.232" height="14.062"/>
		
			<rect x="900.25" y="239.418" transform="matrix(-0.3162 0.9487 -0.9487 -0.3162 1431.8835 -530.951)" fill="#FFFFFF" width="14.063" height="22.233"/>
		<rect x="685.81" y="57.191" fill="#F39200" width="28.125" height="224.997"/>
	</g>
</g>
<g id="Capa_9" display="none">
	<linearGradient id="SVGID_6_" gradientUnits="userSpaceOnUse" x1="693.9995" y1="-67" x2="693.9995" y2="577.0005">
		<stop  offset="0.0345" style="stop-color:#936037"/>
		<stop  offset="0.2225" style="stop-color:#AF7E4E"/>
		<stop  offset="0.3864" style="stop-color:#C29560"/>
		<stop  offset="0.4912" style="stop-color:#CA9E67"/>
		<stop  offset="0.9468" style="stop-color:#B17F4A"/>
	</linearGradient>
	<rect x="-67" y="-67" display="inline" fill="url(#SVGID_6_)" width="1522" height="644"/>
</g>
<g id="Capa_10" display="none">
	<g display="inline" opacity="0.6">
		<circle fill="#1D71B8" cx="583.938" cy="375.259" r="21.982"/>
		<circle fill="#1D71B8" cx="842.308" cy="375.259" r="21.982"/>
		<path fill="#F6F6F6" d="M639.846,367.026h-26.958c-3.619-12.665-15.198-21.983-29.039-21.983
			c-16.646,0-30.125,13.57-30.125,30.126c0,16.646,13.569,30.125,30.125,30.125c13.751,0,25.42-9.318,29.039-21.983h26.958
			c18.093,0,32.839-14.746,32.839-32.84v-50.298c0-4.523-3.709-8.232-8.232-8.232c-4.524,0-8.232,3.709-8.232,8.232v50.298
			C656.312,359.608,648.983,367.026,639.846,367.026z M583.938,389.01c-7.599,0-13.75-6.151-13.75-13.751s6.151-13.75,13.75-13.75
			c7.6,0,13.751,6.15,13.751,13.75C597.689,382.768,591.447,389.01,583.938,389.01z"/>
		<path fill="#F6F6F6" d="M761.703,292.121c-4.522,0-8.232,3.709-8.232,8.232v50.299c0,18.093,14.746,32.839,32.839,32.839h26.959
			c3.619,12.665,15.197,21.983,29.039,21.983c16.646,0,30.125-13.57,30.125-30.126c0-16.646-13.569-30.124-30.125-30.124
			c-13.751,0-25.42,9.317-29.039,21.982H786.4c-9.046,0-16.465-7.417-16.465-16.464v-50.299
			C769.936,295.74,766.227,292.121,761.703,292.121z M842.308,361.418c7.6,0,13.751,6.151,13.751,13.751
			c0,7.599-6.151,13.75-13.751,13.75c-7.599,0-13.751-6.151-13.751-13.75C828.558,367.659,834.8,361.418,842.308,361.418z"/>
		<circle fill="#1D71B8" cx="713.123" cy="434.875" r="21.983"/>
		<path fill="#F6F6F6" d="M722.079,22.986c-33.291,0-64.14,18.184-80.423,46.861c-3.347-0.723-6.694-0.994-10.223-0.994
			c-27.683,0-50.299,22.525-50.299,50.298c0,3.709,0.362,7.328,1.176,10.947C564.127,142.944,553,164.203,553,186.82
			c0,37.815,30.306,71.467,66.22,73.458c0.181,0,0.272,0,0.452,0h178.941c0.181,0,0.361,0,0.543,0c41.523-2.896,74-38.539,74-80.967
			c0-37.09-25.329-69.93-59.888-78.795C806.212,55.916,767.945,22.986,722.079,22.986z M856.872,179.311
			c0,33.292-26.233,62.24-58.439,64.593H619.944c-27.412-1.629-50.571-27.773-50.571-57.083c0-18.998,10.223-36.729,26.597-46.229
			c3.438-1.99,4.976-6.242,3.528-9.951c-1.357-3.619-1.99-7.509-1.99-11.58c0-18.727,15.198-33.924,33.924-33.924
			c3.98,0,7.87,0.723,11.58,1.99c3.981,1.448,8.413-0.362,10.313-4.161C665.81,56.458,692.859,39.36,722.17,39.36
			c39.442,0,72.011,29.493,75.72,68.664c0.361,3.709,3.167,6.695,6.784,7.328C834.347,120.417,856.872,147.919,856.872,179.311z"/>
		<path fill="#F6F6F6" d="M713.123,292.121c-4.523,0-8.231,3.709-8.231,8.232v105.573c-12.395,3.528-21.622,14.837-21.983,28.225
			c-0.182,8.052,2.804,15.742,8.322,21.531c5.519,5.79,13.027,9.137,21.078,9.318h0.725l0,0c16.193,0,29.763-13.209,30.124-29.401
			c0.182-8.052-2.804-15.741-8.322-21.531c-3.799-3.98-8.503-6.785-13.659-8.232V300.263
			C721.355,295.74,717.646,292.121,713.123,292.121z M726.874,435.237c-0.181,7.419-6.333,13.39-13.751,13.39h-0.361
			c-3.709-0.091-7.057-1.629-9.59-4.252c-2.532-2.624-3.89-6.152-3.8-9.861c0.182-7.418,6.333-13.389,13.751-13.389h0.362
			c3.709,0.091,7.056,1.628,9.589,4.252C725.607,428,726.965,431.528,726.874,435.237z"/>
	</g>
</g>
<g id="Capa_12" display="none">
	<linearGradient id="SVGID_7_" gradientUnits="userSpaceOnUse" x1="654.9995" y1="-26" x2="654.9995" y2="566.0005">
		<stop  offset="0" style="stop-color:#FFFFFF"/>
		<stop  offset="1" style="stop-color:#36A9E1"/>
	</linearGradient>
	
		<rect x="-83" y="-26" display="inline" fill="url(#SVGID_7_)" stroke="#000000" stroke-miterlimit="10" width="1476" height="592"/>
</g>
<g id="Capa_11" display="none">
	<path display="inline" fill="#E6332A" stroke="#FFFFFF" stroke-miterlimit="10" d="M465.355,102.255l0.289,0.5
		c0.044-0.167,0.093-0.333,0.139-0.5H465.355z"/>
	<g display="inline" opacity="0.8">
		<path fill="#E6332A" stroke="#FFFFFF" stroke-miterlimit="10" d="M685.238,110.409C662.468,93.318,632.976,83,600.75,83
			c-61.638,0-113.29,37.728-126.982,88.458h168.076C648.623,147.164,664.117,125.901,685.238,110.409z"/>
		<path fill="#E6332A" stroke="#FFFFFF" stroke-miterlimit="10" d="M641.844,171.458h85.889
			c-6.534-24.208-21.71-45.451-42.494-61.05C664.117,125.901,648.623,147.164,641.844,171.458z"/>
		<path fill="#E6332A" stroke="#FFFFFF" stroke-miterlimit="10" d="M684.103,288.342c-22.611,16.584-51.662,26.56-83.353,26.56
			c-17.917,0-34.99-3.19-50.533-8.958L681.808,437l135.704-129.627c-15.109,5.397-31.619,8.376-48.92,8.376
			C736.366,315.749,706.875,305.433,684.103,288.342z"/>
		<path fill="#E6332A" stroke="#FFFFFF" stroke-miterlimit="10" d="M684.103,287.01c-28.174-21.146-46.055-52.665-46.055-87.876
			c0-9.541,1.322-18.808,3.796-27.675H473.768c-0.045,0.167-0.094,0.333-0.139,0.5l76.588,132.653
			c15.543,5.769,32.616,8.959,50.533,8.959C632.441,313.571,661.491,303.595,684.103,287.01z"/>
		<path fill="#E6332A" stroke="#FFFFFF" stroke-miterlimit="10" d="M727.732,171.458c2.322,8.609,3.562,17.59,3.562,26.827
			c0,35.683-18.36,67.578-47.191,88.724c22.772,17.092,52.264,27.408,84.489,27.408c17.301,0,33.811-2.979,48.92-8.376
			l77.702-134.583H727.732z"/>
		<path fill="#E6332A" stroke="#FFFFFF" stroke-miterlimit="10" d="M638.048,199.133c0,35.211,17.881,66.73,46.055,87.876
			c28.831-21.146,47.191-53.041,47.191-88.724c0-9.237-1.239-18.218-3.562-26.827h-85.889
			C639.37,180.325,638.048,189.592,638.048,199.133z"/>
		<path fill="#E6332A" stroke="#FFFFFF" stroke-miterlimit="10" d="M852.923,110.409C830.151,93.318,800.659,83,768.434,83
			c-61.637,0-113.289,37.728-126.982,88.458h168.076C816.307,147.164,831.801,125.901,852.923,110.409z"/>
		<path fill="#E6332A" stroke="#FFFFFF" stroke-miterlimit="10" d="M809.527,171.458h85.89
			c-6.535-24.208-21.711-45.451-42.494-61.05C831.801,125.901,816.307,147.164,809.527,171.458z"/>
	</g>
	<g display="inline">
		<g>
			<g>
				<g>
					<g>
						<path fill="#E6332A" d="M269.377,365.037c0.036,2.48,0.429,1.59,0.515,1.963C269.678,362.844,269.271,365.146,269.377,365.037
							z"/>
						<polygon fill="#E6332A" points="264.147,324.571 264.462,325.244 262.829,319.449 						"/>
						<path fill="#E6332A" d="M253.329,288.079c0.164,0.903,0.568,2.153,1.118,3.622c0.274,0.734,0.587,1.522,0.92,2.35
							c0.295,0.842,0.604,1.727,0.922,2.634c0.645,1.813,1.322,3.722,1.981,5.574c0.65,1.858,1.273,3.666,1.612,5.335l0.134,1.126
							l1.348,2.806c-0.566-1.987-1.156-4.129-1.821-6.286c-0.752-2.13-1.517-4.297-2.255-6.392
							c-0.366-1.048-0.725-2.077-1.073-3.075c-0.344-0.999-0.662-1.972-1.045-2.87C254.447,291.091,253.815,289.449,253.329,288.079
							z"/>
						<path fill="#E6332A" d="M246.434,268.836c0.169,0.62-0.399-0.332-0.458-0.43c0.027,0.049,0.073,0.129,0.449,0.794
							c0.189,0.341,0.451,0.811,0.804,1.446c0.317,0.654,0.716,1.479,1.217,2.513c-0.159-0.436-0.205-0.563-0.297-0.815
							C247.805,271.591,247.342,270.548,246.434,268.836z"/>
						<path fill="#E6332A" d="M248.149,272.344C249.854,276.008,247.255,269.838,248.149,272.344L248.149,272.344z"/>
						<path fill="#E6332A" d="M239.206,255.986c0,0,0.734,1.11,1.468,2.222c0.367,0.557,0.734,1.112,1.009,1.529
							c0.252,0.431,0.421,0.718,0.421,0.718c-0.347-1.079-2.799-5.14-1.776-3.695C237.411,252.131,237.851,253.187,239.206,255.986z
							"/>
						<path fill="#E6332A" d="M236.181,251.929l1.498,2.308C237.491,253.788,237.138,253.148,236.181,251.929z"/>
						<path fill="#E6332A" d="M240.857,259.138l-3.179-4.901c0.295,0.721,0.136,0.905,1.44,2.26
							C238.692,256.193,239.457,257.079,240.857,259.138z"/>
						<path fill="#E6332A" d="M242.343,262.091c1.252,2.712,2.954,6.155,0.258,1.563
							C247.407,272.578,247.166,271.041,242.343,262.091z"/>
						<path fill="#E6332A" d="M251.931,286.545l1.253,3.752l1.476,3.096C253.924,291.848,252.049,286.234,251.931,286.545z"/>
						<path fill="#E6332A" d="M220.89,228.405c-0.307-0.181,0.76,1.675,0.843,2.111l2.484,3.038
							C223.091,231.879,220.892,228.745,220.89,228.405z"/>
						<path fill="#E6332A" d="M221.733,230.516c0,0-0.232-0.284-0.581-0.709c-0.343-0.43-0.812-0.994-1.315-1.53
							c-0.985-1.088-1.97-2.176-1.97-2.176C221.216,230.122,221.769,230.908,221.733,230.516z"/>
						<polygon fill="#E6332A" points="235.022,251.534 240.414,259.51 234.069,249.95 						"/>
						<polygon fill="#E6332A" points="206.211,211.423 208.719,213.644 204.322,209.629 						"/>
						<path fill="#E6332A" d="M195.688,200.899c0.975,0.763,0.462,0.076-0.055-0.583c-0.54-0.634-1.078-1.247-0.046-0.438
							c-3.046-2.676-5.784-4.807-8.24-6.717C189.877,195.283,192.495,197.65,195.688,200.899z"/>
						<path fill="#E6332A" d="M183.155,190.04c1.313,0.998,2.746,1.949,4.192,3.122C186.021,192.011,184.599,191.019,183.155,190.04
							z"/>
						<path fill="#E6332A" d="M211.509,218.406c-0.237-0.395-0.646-1.198-2.792-3.695l1.239,1.988
							C210.43,217.219,210.965,217.809,211.509,218.406z"/>
						<path fill="#E6332A" d="M210.001,216.768l-0.044-0.069c-1.68-1.854-2.844-3.139-3.343-3.69
							C207.041,213.483,208.061,214.615,210.001,216.768z"/>
						<path fill="#E6332A" d="M211.9,218.837c-0.144-0.159-0.25-0.275-0.391-0.431C211.627,218.598,211.707,218.706,211.9,218.837z"
							/>
						<path fill="#E6332A" d="M226.863,238.559c-2.252-2.621-6.729-8.19-2.885-2.43
							C225.685,237.927,223.481,234.625,226.863,238.559z"/>
						<path fill="#E6332A" d="M213.348,221.364l3.885,4.847c0.011-0.164-0.577-1.133,0.601,0.105L213.348,221.364z"/>
						<path fill="#E6332A" d="M211.271,219.142c0,0,0.135,0.135,0.336,0.337c0.207,0.198,0.469,0.473,0.72,0.758
							c0.51,0.563,1.021,1.127,1.021,1.127s-0.36-0.449-0.721-0.899c-0.358-0.451-0.729-0.892-0.729-0.892L211.271,219.142z"/>
						<path fill="#E6332A" d="M190.922,197.363c-1.061-0.831-2.139-1.735-3.264-2.707c-1.129-0.966-2.274-2.035-3.589-3.05
							c1.374,1.13,2.659,2.409,3.992,3.62c1.331,1.213,2.654,2.421,3.944,3.598C192.462,199.054,193.768,199.906,190.922,197.363z"
							/>
						<path fill="#E6332A" d="M200.417,206.575c-0.138-0.125-0.313-0.286-0.442-0.404
							C200.21,206.456,200.411,206.672,200.417,206.575z"/>
						<path fill="#E6332A" d="M157.955,172.006c0.135,0.124,0.253,0.232,0.392,0.358c0.047,0.001,0.084-0.002,0.142,0.006
							L157.955,172.006z"/>
						<path fill="#E6332A" d="M192.396,199.282c0.961,0.928,1.768,1.627,2.462,2.237c0.678,0.627,1.273,1.134,1.859,1.622
							c-0.73-0.682-1.455-1.415-2.246-2.125c-0.795-0.707-1.615-1.437-2.465-2.192C191.8,198.72,191.743,198.722,192.396,199.282z"
							/>
						<path fill="#E6332A" d="M175.962,184.407c1.024,0.954,2.2,2.014,3.441,3.121C178.435,186.561,176.413,184.631,175.962,184.407
							z"/>
						<path fill="#E6332A" d="M199.418,205.453c0.099,0.09,0.189,0.171,0.297,0.269
							C199.157,205.038,199.203,205.147,199.418,205.453z"/>
						<path fill="#E6332A" d="M199.418,205.453c-1.022-0.927-1.865-1.614-2.701-2.312c1.179,1.122,2.284,2.153,3.258,3.03
							C199.761,205.917,199.558,205.65,199.418,205.453z"/>
						<path fill="#E6332A" d="M148.181,169.008c0.303-0.046,1.989,0.76,4.216,2.018c2.197,1.303,4.86,3.172,7.241,5.019
							c5.073,3.068,2.627-0.156-1.292-3.681c-0.263,0.062-0.31,0.122-5.58-3.013c1.73,1.289,10.998,7.996,6.532,5.382
							c-3.411-2.18-4.765-3.136-5.662-3.846c-0.91-0.688-1.374-1.111-2.996-2.232c2.588,2.159-9.164-4.757-8.022-3.209l6.169,3.469
							C148.841,169.08,146.56,167.897,148.181,169.008z"/>
						<path fill="#E6332A" d="M167.924,179.084l2.056,1.469c-1.135-0.888-2.094-1.672-3.127-2.549
							c-0.514-0.443-1.05-0.904-1.638-1.411c-0.605-0.484-1.264-1.011-2.008-1.606c-3.602-2.199-4.404-2.563-4.719-2.617
							c0,0,2.571,1.753,5.142,3.505c1.303,0.852,2.531,1.81,3.466,2.508c0.934,0.701,1.556,1.168,1.556,1.168L167.924,179.084z"/>
						<path fill="#E6332A" d="M178.954,187.498c-0.899-0.458-2.549-1.611-3.65-2.308c-1.124-0.669-1.693-0.889-0.364,0.417
							c5.736,4.66,4.233,3.001,7.774,5.661c-9.314-7.492,2.812,1.993-3.719-3.673c1.867,1.434,3.518,2.758,5.075,4.011
							c-1.624-1.419-3.191-2.788-4.667-4.078c0.078,0.078,0.132,0.132,0.195,0.195l0.045,0.035
							c-0.002,0.002-0.012-0.004-0.014-0.002c0.366,0.37,0.477,0.502,0.046,0.109c-0.035-0.021-0.148-0.112-0.199-0.152
							c-0.1-0.004-0.305-0.104-0.521-0.216c-2.627-2.267-0.352-0.433,0.521,0.216c0.044,0.01,0.129,0.053,0.153,0.042
							c-0.008-0.009-0.02-0.021-0.031-0.032c0,0-0.589-0.464-1.474-1.16c-0.894-0.684-2.042-1.649-3.262-2.523
							c-2.441-1.743-4.882-3.487-4.882-3.487C171.954,182.152,174.613,183.901,178.954,187.498z"/>
						<path fill="#E6332A" d="M219.436,231.59c-0.191-0.319-0.157-0.325-0.149-0.367
							C218.785,230.639,218.582,230.427,219.436,231.59z"/>
						<path fill="#E6332A" d="M216.571,227.612c0.583,0.642,1.229,1.051,2.92,3.303c1.359,2.038-0.17,0.117-0.205,0.308
							c1.103,1.287,3.799,4.574,0.779,0.177l-0.55-0.64c-2.88-3.834-6.456-8.909-5.862-8.312
							C214.253,223.781,214.832,224.914,216.571,227.612z"/>
						<path fill="#E6332A" d="M198.523,206.441c0,0-1.803-1.714-3.605-3.427c-0.884-0.875-1.845-1.667-2.547-2.28
							c-0.706-0.609-1.176-1.016-1.176-1.016s0.876,0.916,1.753,1.831c0.894,0.896,1.706,1.876,1.706,1.876l-0.028-0.343
							C198.576,207.125,197.902,206.068,198.523,206.441z"/>
						<path fill="#E6332A" d="M157.126,171.188l1.351,0.362c0,0-1.286-0.674-2.571-1.348c-0.643-0.334-1.286-0.668-1.769-0.918
							c-0.494-0.231-0.823-0.386-0.823-0.386s0.982,0.525,1.918,1.125C156.179,170.605,157.126,171.188,157.126,171.188z"/>
						<polygon fill="#E6332A" points="146.101,164.336 146.714,164.247 143.664,162.664 						"/>
						<path fill="#E6332A" d="M-254.287,497.054l1.813,2.241C-253.316,498.224-253.87,497.545-254.287,497.054z"/>
						<path fill="#E6332A" d="M-266.007,479.815l-0.428-0.337C-265.848,480.253-265.578,480.551-266.007,479.815z"/>
						<path fill="#E6332A" d="M-159.623,153.253c-2.005,0.773-4.131,1.593-5.691,2.194c-1.539,0.654-2.477,1.163-2.149,1.228
							l1.353-0.25C-163.499,154.973-161.401,154.045-159.623,153.253z"/>
						<path fill="#E6332A" d="M-294.425,315.211c0.146-0.379,0.299-0.773,0.45-1.164c0.123-1.032,0.238-2.003,0.341-2.87
							C-293.872,312.389-294.142,313.767-294.425,315.211z"/>
						<path fill="#E6332A" d="M-293.438,318.516l-1.401,5.364C-294.49,322.679-294.035,320.953-293.438,318.516z"/>
						<path fill="#E6332A" d="M-168.156,570.295l3.152,1.232C-169.605,568.995-167.688,570.306-168.156,570.295z"/>
						<path fill="#E6332A" d="M20.959,122.844c-3.645-0.56-6.553-0.976-9.118-1.239C16.241,122.298,19.751,123.084,20.959,122.844z"
							/>
						<path fill="#E6332A" d="M-262.891,493.038c1.057,1.455,1.572,2.029,1.629,1.925
							C-262.382,493.492-263.009,492.653-262.891,493.038z"/>
						<path fill="#E6332A" d="M1.216,120.912c0.647,0.076,1.28,0.151,1.938,0.229c2.693,0.103,5.403,0.221,8.687,0.464
							C8.585,121.205,4.837,120.846,1.216,120.912z"/>
						<path fill="#E6332A" d="M210.622,509.056c0.205-0.222,0.45-0.485,0.636-0.688
							C211.271,508.261,211.003,508.579,210.622,509.056z"/>
						<path fill="#E6332A" d="M265.896,402.496c-0.082,0.599-0.17,1.39-0.324,2.251c-0.175,0.858-0.367,1.797-0.553,2.707
							C265.201,406.568,265.621,405.1,265.896,402.496z"/>
						<path fill="#E6332A" d="M99.221,141.457C101.798,142.427,99.644,141.569,99.221,141.457L99.221,141.457z"/>
						<path fill="#E6332A" d="M110.94,148.078c-0.552-0.19-0.981-0.311-1.083-0.246C110.104,147.826,110.48,147.918,110.94,148.078z
							"/>
						<path fill="#E6332A" d="M-26.099,123.262c-0.08,0.001-0.144,0.002-0.236,0.004C-25.521,123.333-25.661,123.32-26.099,123.262z
							"/>
						<path fill="#E6332A" d="M103.01,143.14c-0.943-0.423-2.037-0.896-3.234-1.395C100.294,141.983,101.276,142.409,103.01,143.14z
							"/>
						<path fill="#E6332A" d="M102.566,142.747c0.878,0.359,1.57,0.642,2.228,0.911
							C105.145,143.716,104.875,143.563,102.566,142.747z"/>
						<path fill="#E6332A" d="M95.636,140.089c1.47,0.563,2.833,1.115,4.14,1.656c-0.494-0.224-0.696-0.328-0.555-0.289
							C98.466,141.168,97.402,140.763,95.636,140.089z"/>
						<path fill="#E6332A" d="M17.6,607.811c0.18-0.007,0.387-0.015,0.583-0.022C20.89,607.312,19.697,607.471,17.6,607.811z"/>
						<path fill="#E6332A" d="M-216.418,195.923c0.092-0.087,0.142-0.134,0.226-0.212c-0.102,0.077-0.228,0.173-0.32,0.243
							L-216.418,195.923z"/>
						<path fill="#E6332A" d="M-223.43,202.669c2.71-3.168,4.511-4.704,6.917-6.716l-3.218,1.215L-223.43,202.669z"/>
						<path fill="#E6332A" d="M-220.509,533.744l-4.796-4.852c6.538,5.038,10.786,9.158,6.416,4.482
							c-0.404,0.094-1.838-0.959-3.791-2.586c-1.996-1.582-4.332-3.92-6.688-6.236c-4.814-4.535-9.161-9.512-10.014-9.381
							l-2.82-3.506c0.859,0.959,1.058,1.058,1.906,2.005c-1.356-1.716-2.355-2.827-3.138-3.728c-0.805-0.88-1.476-1.477-2.209-2.126
							c-0.734-0.649-1.53-1.352-2.584-2.442c-0.527-0.546-1.118-1.189-1.798-1.972c-0.337-0.394-0.708-0.812-1.083-1.288
							c-0.358-0.488-0.744-1.014-1.161-1.583c-2.269-3.216-3.748-5.527-2.019-3.479c0,0-1.375-1.703-2.751-3.406
							c-0.698-0.845-1.374-1.706-1.84-2.381c-0.482-0.664-0.804-1.107-0.804-1.107c-1.395-2.133-0.853-1.746,0.534,0.373
							c0,0-1.877-2.757-3.755-5.514c-0.922-1.389-1.919-2.732-2.535-3.822c-0.649-1.069-1.082-1.782-1.082-1.782l0.085,0.064
							c-1.155-1.521-3.651-5.066-4.856-6.813c-0.771-1.517-0.505-1.176-0.127-0.538c0.409,0.622,0.976,1.516,0.827,1.1
							c0,0-0.255-0.387-0.637-0.968c-0.388-0.577-0.827-1.392-1.302-2.186c-0.935-1.6-1.869-3.199-1.869-3.199
							c-0.547-1.417-0.029-0.806,0.915,0.724c0.966,1.518,2.248,4.014,3.591,6.186c-0.295-0.825-0.569-1.522-0.836-2.137
							c-0.248-0.626-0.474-1.179-0.719-1.687c-0.487-1.02-1.011-1.888-1.668-2.969c-1.277-2.176-3.304-5.12-5.947-12.089
							c0,0,0.765,1.563,1.529,3.125c0.382,0.781,0.764,1.563,1.05,2.147c0.276,0.591,0.499,0.966,0.499,0.966
							c-0.632-2.187-1.52-4.5-2.657-7.16c-0.566-1.33-1.174-2.757-1.832-4.302c-0.583-1.576-1.165-3.291-1.774-5.153
							c0.112,0.455,0.456,1.622,0.861,3.006c0.202,0.692,0.419,1.438,0.634,2.175c0.245,0.724,0.485,1.438,0.702,2.08
							c0.839,2.579,1.161,4.059-0.665,0.485c-0.915-2.068-1.888-4.878-3.741-8.797c0.218-0.105-0.087-1.129-0.691-2.737
							c-0.654-1.591-1.409-3.839-2.247-6.341l0.719,0.136c-1.941-5.347-2.172-4.805-3.419-7.936
							c-1.589-6.163-1.452-7.559-1.434-9.099c-0.664-2.446-0.804-3.266-0.888-3.253c-0.062,0.008-0.028,0.839,0.056,1.601
							c0.087,0.761,0.153,1.469-0.005,1.261c-0.157-0.208-0.587-1.321-1.193-4.273c-1.563-8.324-2.847-14.121-4.341-24.169
							c-0.304-5.933,0.481,0.996,0.475-1.143l-0.972-5.191c-0.102-1.285,0.091-0.881,0.189-0.678
							c-0.297-2.198-0.465-2.28-0.626-2.681c-0.168-0.399-0.343-1.117-0.533-4.607c-0.19-0.465-0.247-1.598-0.242-3.168
							c0.013-0.785,0.028-1.679,0.044-2.654c0.013-0.487,0.026-0.995,0.041-1.519c0.044-0.524,0.09-1.064,0.138-1.618
							c0.188-2.214,0.379-4.633,0.489-7.04c0.055-1.204,0.089-2.404,0.093-3.576c0.045-1.169,0.105-2.307,0.095-3.391
							c0.369-2.104,0.3,1.054,0.605,0.423c0.133-2.957,0.228-5.069,0.302-6.727c0.082-1.658,0.099-2.866,0.238-3.995
							c0.216-2.266,0.37-4.268,0.734-9.149c0,0,0.37-2.045,0.942-4.05c0.525-2.011,1.05-4.021,1.05-4.021
							c-0.855,2.935-1.027,2.476-0.866,0.421c0.081-1.027,0.245-2.453,0.447-4.051c0.105-0.798,0.205-1.642,0.335-2.493
							c0.165-0.845,0.333-1.702,0.498-2.546c-0.388,1.024-0.777,1.97-1.069,2.819c-0.264,0.858-0.494,1.604-0.678,2.202
							c0,0.001,0.425-2.721,1.116-5.383c0.63-2.679,1.261-5.357,1.261-5.357c0.446-1.256,0.369-0.123,0.161,1.685
							c0.139-0.739,0.271-1.438,0.374-1.984c1.247-3.729,1.071-1.651,0.688,1.148c-0.475,1.253-0.946,2.496-1.404,3.706
							c-0.163,1.355-0.304,2.667-0.339,3.582c-0.031,0.916,0.099,1.448,0.328,1.214c0.04-0.718,0.378-2.039,0.72-3.5
							c-0.08,0.706-0.106,1.162,0.041,0.863c0.162-0.341,0.319-1.472,0.624-3.235l1.33-2.203l-0.117-0.655
							c0,0,0.257-0.852,0.644-2.129c0.347-1.288,0.994-2.95,1.6-4.623c1.221-3.339,2.442-6.678,2.442-6.678
							c2.907-9.727,4.992-18.567,12.527-33.037c-1.42,3.822,0.349,1.171,0.791,1.663c-1.304,1.806-2.749,4.598-4.26,7.899
							c-1.383,3.366-2.953,7.181-4.717,10.981c1.843-3.968,1.744-2.958,1.365-1.913c0,0,1.421-3.454,2.842-6.907
							c0.356-0.865,0.711-1.729,1.045-2.541c0.376-0.791,0.728-1.529,1.029-2.162c0.603-1.266,1.005-2.11,1.005-2.11
							c0.293,0.532,1.815-2.633,3.813-5.981c-0.557,0.533-0.568,0.154-0.177-0.775c0.414-0.917,1.219-2.388,2.188-4.092
							c0.981-1.699,2.104-3.642,3.172-5.489c1.081-1.842,2.237-3.506,3.002-4.828c0.245-0.064,0.236,0.255-0.358,1.354
							c-0.297,0.55-0.741,1.295-1.372,2.285c-0.645,0.981-1.351,2.287-2.332,3.861c2.356-3.355,3.666-5.644,4.854-8.013
							c0.603-1.177,1.201-2.355,1.963-3.636c0.38-0.64,0.802-1.306,1.284-2.009c0.508-0.686,1.098-1.394,1.763-2.155
							c-1.079,1.46-1.719,2.208-1.96,2.914c2.221-3.623,8.67-11.764,7.423-9.635l-1.077,1.454c0.455-0.599,0.939-1.238,1.448-1.909
							c0.51-0.669,1.099-1.329,1.678-2.037c1.167-1.408,2.416-2.914,3.702-4.464c2.495-3.167,5.418-6.271,8.026-9.231
							c1.327-1.458,2.518-2.936,3.742-4.177c1.205-1.259,2.298-2.421,3.23-3.436c1.864-2.029,3.084-3.474,3.258-3.945
							c0.159-0.004-0.414,1.854-0.809,2.488c0,0,0.83-1.075,2.073-2.687c1.278-1.58,3.06-3.618,4.817-5.698
							c0.885-1.038,1.769-2.076,2.599-3.049c0.417-0.487,0.819-0.958,1.201-1.405c0.4-0.427,0.778-0.831,1.127-1.203
							c1.4-1.494,2.333-2.49,2.333-2.49c-0.998,1.761,5.731-1.5-1.729,5.142c2.289-1.734,5.093-3.892,9.618-7.906
							c-1.585,1.139-4.437,2.262-2.407,0.507c1.535-1.027,2.616-1.653,3.447-2.155c0.829-0.504,1.414-0.877,2.039-1.284
							c1.25-0.813,2.666-1.769,6.493-4.186c-2.434,1.635-0.543-1.314,3.376-3.84c-0.504,0.547,0.959,0.717-0.376,1.763
							c0,0,2.233-1.847,4.466-3.694c1.121-0.926,2.242-1.853,3.082-2.547c0.868-0.656,1.446-1.094,1.446-1.094
							c-2.357,1.677,0.081,1.067,2.447-0.006c-0.569,0.219,1.56-1.076,4.151-2.637c1.299-0.774,2.698-1.642,3.961-2.372
							c1.281-0.701,2.394-1.321,3.053-1.716c0,0-1.103,0.533-2.205,1.065c-1.113,0.515-2.183,1.107-2.183,1.107
							c5.7-3.147,8.358-4.987,10.971-6.917c2.64-1.876,5.362-3.609,11.189-6.481c-1.304,0.93-2.874,2.954,3.124,0.269
							c1.258-0.868,4.024-2.842,7.799-5.241c0.948-0.588,1.939-1.251,3.021-1.842c1.081-0.592,2.217-1.197,3.399-1.805
							c2.364-1.215,4.913-2.441,7.568-3.592c0,0,0.539-0.139,1.094-0.231c0.552-0.1,1.104-0.2,1.104-0.2l8.273-3.199
							c-1.241,0.649-3.05,1.554-5.181,2.597c-1.066,0.517-2.212,1.073-3.408,1.653c-1.201,0.563-2.409,1.264-3.66,1.908
							c-2.49,1.3-5.06,2.643-7.474,3.903c-0.603,0.312-1.196,0.619-1.776,0.918c-0.57,0.321-1.127,0.635-1.667,0.94
							c-1.083,0.6-2.099,1.163-3.019,1.672c2.282-0.862,2.629-0.909,3.24-1.111c0.615-0.193,1.464-0.609,4.868-1.914
							c2.518-0.632-3.547,1.817-5.462,2.784c0,0,0.974-0.415,2.435-1.038c1.477-0.584,3.469-1.308,5.449-2.058
							c1.982-0.743,3.965-1.487,5.452-2.044c0.743-0.279,1.363-0.511,1.796-0.674c0.439-0.146,0.69-0.23,0.69-0.23
							c-0.947-0.389,12.063-4.797,11.283-5.125c0,0-4.315,1.646-8.631,3.292c-1.077,0.411-2.154,0.822-3.164,1.207
							c-1.003,0.402-1.923,0.823-2.719,1.161c-1.587,0.687-2.646,1.145-2.646,1.145c-0.462-0.159,1.828-1.632,5.718-3.449
							c1.961-0.864,4.314-1.835,6.896-2.825c1.291-0.496,2.639-0.996,4.023-1.49c1.383-0.499,2.838-0.876,4.29-1.299
							c3.026-0.601-1.861,1.787-1.549,1.93c1.432-0.646,10.85-3.638,11.967-3.745c0,0-0.308,0.085-0.758,0.255
							c-0.451,0.167-1.052,0.388-1.654,0.61c-1.202,0.443-2.403,0.886-2.403,0.886c1.626-0.406,3.078-0.857,4.47-1.32
							c1.407-0.407,2.752-0.837,4.142-1.265c2.781-0.846,5.737-1.736,9.733-2.326c2.743-0.5,8.312-0.766,8.706-1.249
							c-4.582,0.126-5.959-2.02-3.073-3.18c0.492-0.048,4.133-0.657,8.073-1.107c3.953-0.38,8.176-0.76,9.782-0.814
							c4.627-0.102-6.619,2.466-2.671,2.382c0.137-0.207,2.609-0.815,3.645-1.048c1.458-0.145,1.177,0.042,1.316,0.135
							c0.141,0.099,0.693,0.047,3.847-0.316c0.971-0.792,12.858-1.346,2.919-0.898c6.171-0.824,6.577-0.716,13.868-1.167
							c-1.176-0.144,0.432-0.625,3.123-1.145c1.345-0.26,2.961-0.53,4.631-0.773c1.669-0.272,3.401-0.338,4.964-0.444
							c-0.363,0.182,1.05,0.377,1.733,0.464c3.199-0.038,6.027-0.072,8.657-0.104c2.629,0.057,5.059,0.182,7.461,0.268
							c2.401,0.09,4.775,0.179,7.294,0.273c2.514,0.177,5.172,0.364,8.145,0.573c1.087,0.236,6.805,0.81,4.339,0.943
							c1.72-0.039,3.304-0.096,6.958,0.295c7.001,1.357-8.146-0.797-2.83,0.495c0.248-0.172,2.618-0.051,5.582,0.154
							c2.96,0.23,6.53,0.422,9.124,0.762c-0.377-0.209-1.311-0.447-2.584-0.666c-1.279-0.175-2.898-0.34-4.632-0.49
							c-3.469-0.29-7.392-0.566-10.01-0.679c0.027-0.456,2.324-0.627,6.188-0.585c1.931,0.022,4.253,0.101,6.875,0.236
							c0.655,0.038,1.329,0.076,2.02,0.116c0.688,0.073,1.392,0.147,2.113,0.223c1.44,0.167,2.944,0.34,4.499,0.52
							c9.873,1.303,4.174,1.192,5.902,1.336c18.296,3.63,15.953,1.574,30.881,5.983c5.775,2.238-0.022,1.108,1.188,1.863
							c-3.892-1.093-6.908-1.811-9.575-2.597c-2.674-0.758-5.025-1.485-7.698-2.099c0,0,0.411,0.096,1.019,0.276
							c0.61,0.173,1.422,0.404,2.235,0.635c1.625,0.462,3.249,0.923,3.249,0.923c-1.271-0.218-3.223-0.614-5.21-1.061
							c-1.985-0.456-4.042-0.797-5.463-1.18c2.496,0.64,10.14,2.489,18.867,4.745c4.319,1.291,8.946,2.562,13.288,3.974
							c4.313,1.5,8.405,2.938,11.761,4.207c2.438,0.753,6.614,2.175,4.747,1.218l-4.267-1.577c-3.756-1.919,8.201,2.54,2.895,0.264
							c2.905,0.965,6.003,1.958,9.371,3.13c3.321,1.285,6.885,2.816,10.786,4.658l1.225,1.209c-0.092-0.236-5.003-2.601-7.295-3.405
							c1.698,0.599,4.639,2.119,7.638,3.594c2.941,1.603,5.937,3.171,7.882,3.683l-5.233-3.059c2.837,1.208,6.013,2.562,9.357,3.986
							c3.289,1.548,6.678,3.328,9.993,5.251c-2.761-2.212-1.577-0.79-6.017-4.043c0.932,0.765,0.322,0.552-1.016-0.125
							c-0.664-0.349-1.519-0.797-2.459-1.292c-0.953-0.47-1.993-0.982-3.012-1.485c-4.077-2.018-7.831-3.87-4.633-1.774
							c-2.322-1.61-4.448-2.783-6.848-3.87c-2.383-1.127-4.967-2.327-8.183-4.124c0.065,0.139,0.621,0.489,0.428,0.468
							c-0.201-0.002-1.111-0.468-4.107-1.652c-0.293-0.05-0.961-0.229-1.383-0.346c-0.182-0.078-0.245-0.105-0.401-0.172
							c0.117,0.055,0.205,0.096,0.322,0.151c-0.271-0.073-0.295-0.076,0.121,0.056c1.397,0.638,2.515,1.186,2.941,1.473
							c-1.576-0.364-4.743-1.473-7.928-2.62c-1.594-0.568-3.186-1.166-4.599-1.648c-1.428-0.442-2.66-0.813-3.497-1.033
							c-3.577-1.314,1.586,0.292-0.314-0.58l-5.003-1.315c-0.171-0.295-2.513-1.285-3.741-1.873
							c-1.253-0.503-1.332-0.794,2.966,0.545c0,0-0.479-0.164-1.198-0.409c-0.72-0.242-1.673-0.589-2.65-0.857
							c-1.944-0.57-3.888-1.141-3.888-1.141c-2.254-0.787-4.954-1.663-7.581-2.46c-2.641-0.75-5.239-1.31-7.225-1.713
							c-3.695-1.002-9.49-1.803-6.179-1.357c0,0-0.194-0.043-0.533-0.118c-0.337-0.083-0.827-0.17-1.414-0.271
							c-1.174-0.207-2.739-0.481-4.304-0.756c-3.127-0.549-6.255-1.098-6.255-1.098l-0.094-0.133
							c-12.35-2.199-25.56-3.313-39.803-4.842c-2.109-0.056-4.249-0.214-6.748-0.231c-2.499-0.021-5.351-0.081-8.876-0.221
							l-1.371-0.418c-2.71-0.06-6.777-0.011-10.462-0.003c-3.684,0.03-6.986,0.029-8.138,0.317
							c-1.471-0.166-3.852-0.156-6.745-0.041c-1.446,0.058-3.021,0.142-4.672,0.244c-0.826,0.054-1.671,0.11-2.529,0.167
							c-0.855,0.098-1.724,0.197-2.6,0.297c-3.499,0.419-7.113,0.853-10.445,1.252c-3.326,0.436-6.348,0.994-8.717,1.287
							l-0.277,0.556c-6.511,0.853-12.639,2.357-20.573,4.147l0.583,0.319c-3.363,1.009-7.751,1.998-12.652,3.07
							c-2.442,0.565-4.977,1.288-7.59,1.976c-2.601,0.729-5.294,1.389-7.919,2.286c0.649-0.445,3.372-1.173,5.313-1.63
							c-13.019,2.88-26.291,9.536-37.459,13.908c-2.673,1.36-4.696,2.146-6.611,3.012c0.249-0.124,0.47-0.242,0.656-0.35
							c-0.276,0.135-0.685,0.334-1.105,0.54c-1.22,0.518-2.478,1.052-3.838,1.629c1.174-0.458,2.291-0.91,3.246-1.335
							c-2.068,1.032-5.187,2.634-8.213,4.255c0,0-0.383,0.056-0.767,0.112c-0.377,0.07-0.753,0.14-0.753,0.14
							c-0.242,0.139-0.438,0.251-0.69,0.396c-3.042,1.472-2.267,1.509-0.522,0.961c-1.477,0.904-2.818,1.751-3.837,2.445
							c-1.385,0.319-3.328,1.464-5.379,2.662c-2.01,1.271-4.106,2.632-5.92,3.248c-0.441,0.388-1.573,1.161-3.039,2.128
							c-0.734,0.48-1.55,1.013-2.404,1.572c-0.831,0.595-1.699,1.217-2.564,1.837c-3.453,2.49-6.818,4.989-7.328,5.846
							c-0.16-0.025-1.027,0.496,0.501-0.544c-3.188,2.103-6.262,4.377-8.88,6.592l-1.674,0.483c0,0-0.387,0.353-0.968,0.881
							c-0.571,0.541-1.306,1.295-2.052,2.033c-1.483,1.481-2.966,2.961-2.966,2.961c-4.152,2.919-5.929,4.096-2.33,0.538
							c-1.122,1.031-2.077,1.909-2.904,2.669c-0.799,0.792-1.474,1.461-2.064,2.046c-1.193,1.153-2.04,1.972-2.846,2.75
							c-0.803,0.781-1.564,1.521-2.59,2.519c-0.502,0.508-1.084,1.066-1.732,1.763c-0.631,0.713-1.358,1.536-2.216,2.506
							l0.081-0.638c-1.307,1.307-2.916,3.094-4.422,4.72c-0.753,0.813-1.482,1.584-2.133,2.241c-0.621,0.685-1.172,1.245-1.607,1.6
							c-1.531,1.395-4.03,3.977-7.147,7.304c-1.467,1.745-3.089,3.674-4.821,5.734c-0.862,1.035-1.75,2.102-2.661,3.195
							c-0.924,1.083-1.747,2.29-2.651,3.464c-7.394,9.296-14.474,20.807-19.968,29.92c2.964-3.094-5.105,8.497-4.625,9.692
							c-0.764,1.002-2.145,3.638-0.92,0.396c-1.075,2.502-2.062,4.668-2.978,6.625c-0.462,0.977-0.9,1.903-1.321,2.793
							c-0.422,0.889-0.749,1.775-1.106,2.619c-1.372,3.399-2.605,6.412-3.546,10.062c-0.326,0.544-0.238-0.042-0.132-0.641
							c0.121-0.594,0.291-1.189,0.007-0.703c-0.271,0.833-0.875,3.361-1.399,4.38c-0.503,1.001,0.283-1.59,0.712-3.271
							c-1.729,5.301-2.479,8.283-2.73,10.059c-0.274,1.769,0.076,2.373,0.33,2.866c-0.909,2.654-1.533,4.667-1.998,6.518
							c-0.438,1.857-0.837,3.524-0.946,5.575c-0.651,1.849-1.584,4.989-0.271-1.775c-0.389,1.896-1.767,7.657-2.783,13.048
							c-0.815,5.427-1.48,10.434-1.191,10.666c-0.353,1.179-0.548,5.383-0.583,6.401c-0.892,8.64-0.719,9.42-0.965,17.942
							l0.174-2.362c0.577,3.371,0.159,7.074,0.449,13.94l-0.085-0.193c-0.003,0.985-0.006,1.874-0.009,2.679
							c0.047,0.802,0.089,1.52,0.127,2.165c0.092,1.29,0.163,2.291,0.22,3.099c0.132,1.614,0.237,2.452,0.339,3.283
							s0.201,1.655,0.321,3.243c0.128,1.588,0.465,3.916,0.859,7.79l0.351-0.908c0.308,0.321,0.55,1.335,0.766,2.814
							c0.216,1.479,0.373,3.434,0.751,5.591c0.332,2.167,0.693,4.572,1.111,6.985c0.228,1.201,0.388,2.424,0.716,3.582
							c0.307,1.163,0.63,2.298,0.97,3.374l-0.578-3.209c0.809,2.333,1.359,5.733,1.86,9.181c0.211,1.734,0.574,3.43,0.907,5.011
							c0.335,1.58,0.675,3.035,1.035,4.227c0.255,1.059-0.674-1.58-1.213-2.999c1.757,6.287,2.042,6.642,2.279,6.563
							c0.274-0.092,0.333-0.54,2.2,3.927c0.339,1.785-1.652-1.844,0.686,4.266c0.235,0.783,0.852,2.254,1.685,4.149
							c0.909,1.862,2.106,4.117,3.338,6.545c2.35,4.915,5.543,10.166,7.29,14.282c-0.686-1.862-1.359-3.702,0.904,0.178
							c1.712,2.98,3.943,7.063,6.135,11.086c2.354,3.919,4.846,7.67,6.9,10.025c0.421,0.773,0.57,1.073,0.54,1.14
							c1.635,2.064,4.289,5.418,6.781,8.566c2.56,3.089,5.127,5.831,6.286,6.921c0.826,2.473,6.477,8.424,11.818,13.749
							c2.757,2.582,5.402,5.046,7.287,6.93c0.927,0.959,1.736,1.696,2.24,2.268c0.508,0.568,0.734,0.945,0.593,1.075
							c0,0,3.019,2.692,6.038,5.386c1.479,1.38,3.11,2.584,4.27,3.56c1.178,0.955,1.963,1.592,1.963,1.592l-0.426-0.147
							c1.985,1.658,3.665,3.029,5.116,4.185c1.494,1.1,2.765,1.972,3.868,2.719c2.209,1.489,3.778,2.429,5.341,3.362
							c1.854,1.509,0.373,0.585,0.168,0.532c1.47,1.188,2.877,2.098,4.104,2.979c1.24,0.863,2.346,1.633,3.356,2.337
							c2.037,1.384,3.665,2.549,5.321,3.526c1.66,0.972,3.273,1.876,5.168,2.907c0.95,0.511,1.968,1.059,3.097,1.667
							c1.135,0.595,2.355,1.293,3.8,1.947l0.906,1.064c0.787,0.352,2.35,1.227,4.46,2.446c2.113,1.215,4.746,2.831,7.822,4.373
							c3.059,1.569,6.397,3.393,9.905,5.008c3.53,1.569,7.144,3.113,10.588,4.471c-0.154-0.007-0.471-0.041-1.576-0.45
							c1.92,0.81,3.985,1.535,6.075,2.346c2.092,0.807,4.226,1.659,6.366,2.529c2.125,0.911,4.317,1.665,6.46,2.454
							c2.146,0.784,4.258,1.556,6.292,2.3c2.026,0.774,4.019,1.381,5.894,1.937c1.872,0.562,3.627,1.065,5.223,1.488
							c1.596,0.422,3.032,0.763,4.267,0.996c1.239,0.214,2.289,0.273,3.084,0.243l10.767,2.169
							c-13.747-3.498,2.226-0.264-3.371-1.938c1.359,0.295,2.896,0.721,4.354,1.084c1.463,0.339,2.832,0.686,3.819,0.964
							c1.975,0.556,2.427,0.835-0.941,0.214l-1.032-0.297c-1.333,0.216,2.972,1.154,7.551,2.109
							c1.145,0.238,2.306,0.479,3.401,0.707c1.102,0.193,2.136,0.375,3.021,0.529c1.768,0.32,2.93,0.582,2.811,0.726
							c27.605,4.432,55.034,5.418,81.182,3.366l-3.072-0.53c0,0,0.569-0.034,1.424-0.087c0.855-0.04,1.994-0.122,3.127-0.259
							c2.27-0.236,4.541-0.474,4.541-0.474c2.399-0.091,3.264,0.219-3.226,0.896c3.457,0.04,10.839-1.532,10.996-1.71
							c6.328-0.785,5.128-0.411,2.825,0.131c-2.295,0.588-5.732,1.037-3.779,0.849c0,0,0.33-0.039,0.826-0.099
							c0.497-0.048,1.154-0.159,1.811-0.269c1.314-0.215,2.628-0.43,2.628-0.43l-1.199,0.097c4.222-0.968,4.558-1.28,12.292-2.514
							c4.889-0.82,2.578-0.052,4.499-0.403c-0.001,0.026,0.162,0.014,0.612-0.069c0.45-0.084,1.187-0.237,2.333-0.493
							c0,0,2.83-0.548,5.66-1.096c2.804-0.668,5.608-1.336,5.608-1.336l-4.606,0.529c4.893-1.486,10.516-2.534,5.208-1.913
							c3.915-0.354,14.334-2.998,24.166-6.26c9.878-3.141,19.053-7.102,21.367-7.762c3.208-1.593,6.4-3.146,9.814-4.686
							c0.854-0.384,1.719-0.773,2.599-1.169c0.866-0.426,1.746-0.858,2.643-1.3c1.796-0.879,3.663-1.793,5.624-2.752
							c-2.001,0.854-3.448,0.846,3.322-2.41c-0.469,0.587,0.111,0.584,1.269,0.081c1.164-0.49,2.946-1.401,4.965-2.458
							c2.021-1.056,4.286-2.239,6.385-3.337c2.063-1.16,3.991-2.182,5.419-2.771c-2.502,1.133,2.086-1.649,6.247-4.37
							c4.084-2.846,7.818-5.495,4.026-3.482c5.269-3.427,0.597,0.202,4.735-2.212c1.539-1.068,3.018-2.304,4.587-3.483
							c1.568-1.182,3.171-2.389,4.804-3.618c0.82-0.609,1.647-1.226,2.482-1.846c0.81-0.652,1.627-1.311,2.451-1.974
							c1.653-1.318,3.333-2.658,5.033-4.016c0.848-0.681,1.717-1.349,2.563-2.053c0.829-0.725,1.663-1.454,2.501-2.187
							c1.674-1.47,3.365-2.955,5.069-4.451c1.733-1.467,3.337-3.098,4.978-4.708c1.627-1.624,3.263-3.257,4.904-4.896
							c0.079-0.325-2.314,1.669,0.316-1.309l7.256-6.62c2.432-2.75,1.481-3.175,6.223-7.924c-0.716,0.634-1.786,1.576-0.266-0.349
							c11.838-13.742,22.005-29.459,30.106-46.22c8.069-16.796,14.146-34.541,18.612-52.506c-1.354,4.837-0.707,1.557,0.058-2.185
							c-0.585,2.415-0.415-0.139-0.748,0.294c0,0,0.237-0.936,0.592-2.34c0.39-1.399,0.669-3.309,1.06-5.201
							c0.729-3.801,1.458-7.602,1.458-7.602c-0.153-1.438,0.165-5.564,0.52-9.537c0.084-0.994,0.168-1.979,0.247-2.908
							c0.081-0.93,0.053-1.812,0.068-2.591c0.005-1.561-0.041-2.724-0.188-3.132l-0.03,4.889c-0.138-1.635-0.328-1.886-0.549-1.365
							c-0.217,0.521-0.454,1.814-0.834,3.267c-0.701,2.911-1.486,6.476-1.921,5.96c0.026,0.904,0,1.878-0.064,2.91
							c-0.041,0.515-0.083,1.046-0.125,1.591c-0.066,0.543-0.169,1.096-0.265,1.663c-0.395,2.268-0.907,4.734-1.428,7.338
							c-0.282,1.299-0.476,2.647-0.821,3.996c-0.332,1.352-0.653,2.73-0.952,4.133s-0.573,2.828-0.812,4.271
							c-0.239,1.444-0.415,2.914-0.685,4.365c-0.864,2.464,0.276-2.216-0.301-0.924c-0.188,1.487-0.495,3.109-0.995,5.16
							c-0.25,1.025-0.547,2.157-0.902,3.434c-0.349,1.278-0.748,2.702-1.349,4.265l0.14-0.747c-0.731,2.229-1.41,4.298-2.051,6.252
							c-0.325,0.976-0.641,1.922-0.948,2.846c-0.157,0.461-0.312,0.916-0.465,1.365c-0.177,0.441-0.352,0.877-0.526,1.31
							c-1.409,3.443-2.706,6.61-4.03,9.845c-1.517,3.146-3.064,6.358-4.805,9.97c-0.873,1.802-1.958,3.622-3.027,5.624
							c-1.103,1.984-2.22,4.139-3.534,6.415c0,0,0.3-0.278,0.6-0.557c0.285-0.287,0.57-0.575,0.57-0.575
							c-2.29,3.907-2.968,4.616-4.135,6.386c-1.022,2.416,0.614-0.31,2.29-3.082c1.738-2.736,3.192-5.702,2.462-3.398
							c-0.229,0.304-0.482,0.682-0.771,1.118c-0.308,0.426-0.644,0.912-1.005,1.45c-0.722,1.077-1.542,2.361-2.424,3.779
							c-0.871,1.426-1.819,2.977-2.802,4.584c-1.014,1.588-2.134,3.188-3.205,4.8c-1.084,1.604-2.159,3.194-3.18,4.705
							c-0.5,0.764-1.029,1.476-1.559,2.146c-0.524,0.673-1.027,1.319-1.502,1.931c-1.916,2.435-3.456,4.254-4.278,4.898
							c-0.521,0.696-0.884,1.199-1.133,1.555c-0.265,0.343-0.406,0.545-0.463,0.655c-0.115,0.219,0.101,0.065,0.317-0.089
							c0.434-0.309,0.868-0.618-1.356,2.063l-1.408,1.235l-0.828,1.599c-1.482,1.741-2.66,2.995-3.504,3.809
							c-0.848,0.811-1.411,1.139-1.554,1.126c0.798-0.771,1.997-2.429,2.74-3.352c-1.95,2.22-4.822,5.235-7.242,8.01
							c-1.226,1.372-2.339,2.685-3.286,3.697c-0.968,0.991-1.71,1.739-2.091,2.076c0,0,1.219-1.145,2.438-2.289
							c1.161-1.202,2.321-2.403,2.321-2.403c-0.792,0.884-1.58,1.794-2.411,2.685c-0.857,0.864-1.725,1.739-2.6,2.622
							c-1.759,1.76-3.552,3.554-5.366,5.369c-1.841,1.787-3.814,3.48-5.739,5.243c-0.969,0.874-1.94,1.751-2.913,2.628
							c-0.488,0.436-0.966,0.884-1.463,1.31l-1.519,1.246c-4.066,3.299-8.002,6.729-12.095,9.704
							c-2.006,1.54-3.981,3.055-5.91,4.535c-1.977,1.416-3.907,2.798-5.776,4.137l1.283-0.597c-2.859,2.044-4.864,3.479-6.508,4.537
							c-1.67,1.02-2.929,1.744-4.227,2.484c-2.622,1.438-5.271,3.162-12.028,6.89l0.466-0.317c-2.609,1.661-6.12,3.856-9.96,5.633
							c3.374-1.959-6.8,2.791-2.348,0.27c-3.368,1.769-5.441,2.939-6.859,3.631c-1.416,0.695-2.107,1.061-2.646,1.371
							c-1.079,0.623-1.54,1.026-5.994,3.44l-2.271,0.595c-3.065,1.578-3.275,1.829-10.444,4.723
							c5.792-2.591-4.789,1.255,1.671-1.706c-3.836,1.285-7.172,2.401-10.134,3.394c-2.957,1.002-5.492,2.024-7.82,2.804
							c-4.666,1.52-8.31,2.695-12.023,3.157c-3.472,1.388-0.025,0.746,3.73-0.358c3.768-1.052,7.9-2.314,5.932-1.629
							c3.447-0.676-5.67,2.5-10.619,3.727c-2.522,0.604-4.745,0.809-7.908,1.248c-1.585,0.201-3.389,0.539-5.617,0.874
							c-2.23,0.321-4.856,0.763-8.041,1.399c1.269-0.247,1.34-0.34,2.605-0.586c-2.41,0.344-4.727,0.894-7.186,1.451
							c-2.475,0.461-5.098,0.902-8.076,1.147c-1.605,0.56-3.522,0.845-5.141,1.106c-1.619,0.259-2.955,0.388-3.384,0.849
							c0-0.001,2.967-0.333,5.903-0.881c2.942-0.498,5.885-0.996,5.885-0.996c-3.33,0.592-6.52,1.445-10.295,2.121
							c-3.784,0.601-8.13,1.243-13.707,1.56c0.858-0.188,4.135-0.805,6.39-1.154c-1.633,0.062-3.188,0.27-4.76,0.479
							c-1.571,0.222-3.17,0.305-4.864,0.313c0.452-0.432,4.068-0.646,8.441-1.211c4.373-0.532,9.555-0.96,13.075-1.902
							c-0.875,0.05-2.151,0.239-3.521,0.475c-1.376,0.191-2.85,0.395-4.103,0.568c-2.507,0.352-4.135,0.542-2.376-0.081
							c-1.268,0.412-2.699,0.697-4.267,0.92c-1.569,0.212-3.269,0.422-5.094,0.474c-3.646,0.171-7.728,0.338-12.099,1.042
							l0.558-0.513c-1.383,0.198-4.261,0.417-6.824,0.481l4.614-0.715c-7.1,0.659-13.711-0.049-20.52-0.038
							c7.134,0.163,7.936,0.288,7.708,0.467c-0.228,0.192-1.491,0.453,1.535,0.561c-2.206,0.165-4.02,0.113-5.543,0.101
							c-1.523-0.023-2.755-0.07-3.799-0.135c-2.086-0.128-3.416-0.325-4.808-0.536c-0.697-0.1-1.41-0.201-2.239-0.319
							c-0.829-0.123-1.775-0.281-2.942-0.42c-2.333-0.287-5.547-0.572-10.466-0.836c2.664,0.106,9.976,0.937,5.796,0.885
							c-1.871-0.171-4.04-0.383-6.025-0.602c-1.984-0.228-3.772-0.589-4.906-0.819c-12.989-1.319,1.942,0.702-3.616,0.389
							c-2.182-0.529-3.782-0.645-5.557-0.683c-1.776-0.03-3.706-0.137-6.561-0.462l0.032-0.483
							c-7.338-1.294-8.363-1.156-9.189-1.102c-0.83,0.084-1.48,0.194-8.038-1.297l5.695,0.447l-6.895-1.19l1.526-0.257
							c-1.884-0.271-3.443-0.508-4.833-0.737c-1.381-0.272-2.59-0.561-3.793-0.847c-2.405-0.582-4.775-1.227-8.375-2.184
							c0.798,0.369,0.508,0.524-0.788,0.392c-1.298-0.121-3.561-0.687-6.742-1.588c-4.248-1.533,2.551,0.264-6.459-2.283
							c2.121,0.302,4.443,0.582,8.229,2.146c0.444-0.034,2.082,0.29,2.534,0.26c-4.546-1.702-11.685-3.368-14.854-4.568
							c1.228,0.435,2.693,0.959,3.428,1.281l-13.05-3.728c-1.922-0.962-0.313-0.426,1.327-0.034c-2.605-0.864-4.432-1.402-8.22-2.81
							c1.117,0.014,1.033-0.453,6.41,1.438c0,0-3.042-1.065-6.083-2.13c-1.522-0.533-3.045-1.066-4.187-1.466
							c-1.148-0.386-1.893-0.696-1.893-0.695c-0.725-0.506-5.871-3.096-4.281-2.554c-3.217-1.548-7.33-3.069-11.562-5.051
							c-2.133-0.953-4.333-1.941-6.522-2.971c-2.179-1.049-4.277-2.271-6.324-3.463c-0.467-0.171-1.368-0.584-3.161-1.508
							c-7.713-4.474-14.134-9.047-23.126-14.586c0,0-0.285-0.245-0.712-0.613c-0.435-0.357-0.983-0.876-1.53-1.396
							c-1.095-1.034-2.191-2.069-2.191-2.069c-6.72-4.802,5.982,5.557-5.224-2.453c-0.994-0.709-1.789-1.271-2.397-1.747
							c-0.597-0.491-1.033-0.867-1.348-1.156c-0.629-0.578-0.773-0.811-0.756-0.927c0.035-0.233,0.713-0.007-0.545-1.165
							c-1.966-1.414-4.758-3.245-7.749-5.646c-1.473-1.225-3.025-2.56-4.6-3.988c-0.787-0.714-1.58-1.452-2.372-2.212
							c-0.794-0.757-1.59-1.532-2.32-2.388C-224.297,530.346-222.569,531.896-220.509,533.744z M-280.645,452.452
							c0.917,1.756,2.839,5.194,3.183,6.627C-278.897,457.275-279.387,455.573-280.645,452.452z M-289.309,300.971
							c-0.294,1.455-1.139,3.577-2.046,5.993C-290.883,305.155-290.146,303.166-289.309,300.971z M70.46,132.416
							c-0.084-0.015-0.144-0.025-0.212-0.037c-2.122-0.731-2.819-0.924-2.604-0.857C67.867,131.563,68.98,131.941,70.46,132.416z
							 M79.332,135.213c0.917,0.196,0.875,0.115,0.516-0.06c-0.66-0.064-2.667-0.639-4.94-1.336
							C75.507,134.123,76.634,134.541,79.332,135.213z M46.926,606.687l-1.797,0.228C49.105,605.984,48.009,606.329,46.926,606.687z
							"/>
						<path fill="#E6332A" d="M-293.551,318.076c-0.209,0.525-0.317,0.66-0.436,0.767
							C-294.063,319.625-293.986,319.658-293.551,318.076z"/>
						<path fill="#E6332A" d="M-168.74,570.066l0.268,0.154c0.163,0.057,0.257,0.074,0.316,0.074L-168.74,570.066z"/>
						<path fill="#E6332A" d="M-62.506,128.148c-1.877,0.217-2.933,0.29-3.639,0.306C-66.23,128.587-65.365,128.555-62.506,128.148z
							"/>
						<path fill="#E6332A" d="M125.431,152.655l-5.41-2.532c2.601,1.257,3.479,1.809,4.752,2.523
							C124.704,152.486,123.753,151.835,125.431,152.655z"/>
						<path fill="#E6332A" d="M167.917,181.947c0.729,0.468,1.475,1.089,2.194,1.55l-0.055-0.32
							C167.09,180.987,164.92,179.598,167.917,181.947z"/>
						<path fill="#E6332A" d="M129.654,156.529c0.262,0.52,3.578,2.207,7.258,4.148c-0.218-0.12-0.426-0.235-0.644-0.355
							c0.674,0.047,0.017-0.423-1.304-1.152c-0.661-0.364-1.487-0.792-2.395-1.252C131.663,157.453,130.673,156.96,129.654,156.529z
							"/>
						<path fill="#E6332A" d="M137.763,161.13c1.132,0.602,2.286,1.225,3.374,1.847C141.676,163.015,139.793,162.183,137.763,161.13
							z"/>
						<path fill="#E6332A" d="M90.616,138.657c1.841,0.734,1.35-0.09,2.358,0.426C95.236,139.304,80.258,135.435,90.616,138.657z"/>
						<path fill="#E6332A" d="M132.007,159.282l-1.068-1.16c0,0-0.553-0.197-1.125-0.355c-0.567-0.167-1.134-0.335-1.134-0.335
							s0.841,0.445,1.683,0.889C131.185,158.801,132.007,159.282,132.007,159.282z"/>
						<path fill="#E6332A" d="M102.456,145.239c0,0,1.531,0.632,3.063,1.264c0.772,0.301,1.514,0.673,2.08,0.93
							c0.563,0.262,0.939,0.437,0.939,0.437c-0.059-0.118,0.73,0.175,1.692,0.557C106.528,146.696,102.361,145.054,102.456,145.239z
							"/>
						<path fill="#E6332A" d="M110.23,148.427c1.944,0.867,3.801,1.672,4.917,2.073C114.092,150.042,111.817,149.059,110.23,148.427
							z"/>
						<path fill="#E6332A" d="M123.867,155.33l-1.708-0.96c0,0-1.044-0.526-2.088-1.052c-0.522-0.263-1.044-0.526-1.436-0.723
							c-0.389-0.204-0.661-0.312-0.661-0.312s0.38,0.167,0.928,0.462c0.551,0.287,1.287,0.67,2.023,1.054
							C122.396,154.563,123.867,155.33,123.867,155.33z"/>
						<path fill="#E6332A" d="M33.862,126.507l-7.171-0.955c-0.75,0.059,1.183,0.461,3.852,0.801
							C32.269,126.498,34.934,126.839,33.862,126.507z"/>
						<path fill="#E6332A" d="M55.063,131.878c-1.867-0.578-1.985-0.655-3.024-1.046l-0.346,0.564c0,0,0.845,0.106,1.69,0.213
							C54.228,131.719,55.063,131.878,55.063,131.878z"/>
						<path fill="#E6332A" d="M34.398,128.124c-0.74,0.061-10.395-1.095-1.378,0.25C33.764,128.315,40.917,129.268,34.398,128.124z"
							/>
						<polygon fill="#E6332A" points="-73.774,128.154 -71.961,127.868 -72.393,126.904 						"/>
						<path fill="#E6332A" d="M-163.156,160.797c7.711-3.552,1.521-1.457,8.538-4.586c1.685-1.101-5.737,2.557-3.996,1.464
							c-2.243,1.254-3.991,2.132-4.859,2.673C-164.33,160.912-164.341,161.068-163.156,160.797z"/>
						<path fill="#E6332A" d="M-158.614,157.676c0.716-0.408,1.474-0.84,2.282-1.3
							C-157.638,157.092-158.244,157.446-158.614,157.676z"/>
						<path fill="#E6332A" d="M268.843,382.334c0,0,0.171-1.385,0.342-2.77c0.095-1.391,0.189-2.781,0.189-2.781
							s-0.112,0.896-0.224,1.79c-0.059,0.446-0.106,0.894-0.161,1.229c-0.062,0.333-0.103,0.556-0.103,0.556L268.843,382.334z"/>
						<path fill="#E6332A" d="M268.558,371.638l0.688-1.296l-0.49-3.342C268.748,368.254,268.733,370.689,268.558,371.638z"/>
						<path fill="#E6332A" d="M-285.076,437.97l-0.277-0.34c0.073,0.865,0.571,2.036,1.467,4.417c0,0-0.304-1.018-0.607-2.036
							c-0.152-0.509-0.303-1.017-0.417-1.398C-285.028,438.233-285.077,437.97-285.076,437.97z"/>
						<path fill="#E6332A" d="M-249.65,502.143c0,0-0.2-0.247-0.4-0.493c-0.189-0.255-0.378-0.51-0.378-0.51
							s0.232,0.571,0.505,1.112c0.264,0.549,0.528,1.098,0.528,1.098L-249.65,502.143z"/>
						<path fill="#E6332A" d="M-205.21,544.972c-1.967-1.578-4.319-3.384-6.272-5.001
							C-207.17,543.379-205.141,545.994-205.21,544.972z"/>
					</g>
				</g>
			</g>
		</g>
	</g>
	<ellipse display="inline" fill="none" stroke="#E6332A" stroke-miterlimit="10" cx="-56" cy="-231" rx="3" ry="0"/>
	<ellipse display="inline" fill="none" stroke="#E6332A" stroke-miterlimit="10" cx="222" cy="424" rx="313" ry="291"/>
	<ellipse display="inline" fill="none" stroke="#E6332A" stroke-miterlimit="10" cx="1075" cy="159" rx="360" ry="298"/>
	<ellipse display="inline" fill="none" stroke="#E6332A" stroke-miterlimit="10" cx="1216" cy="424" rx="235" ry="221"/>
	<ellipse display="inline" fill="none" stroke="#E6332A" stroke-miterlimit="10" cx="1321" cy="137" rx="196" ry="228"/>
	<ellipse display="inline" fill="none" stroke="#E6332A" stroke-miterlimit="10" cx="563" cy="545" rx="120" ry="112"/>
</g>
<g id="Capa_13" display="none">
	<linearGradient id="SVGID_8_" gradientUnits="userSpaceOnUse" x1="790" y1="-147" x2="789.9999" y2="747.0005">
		<stop  offset="0" style="stop-color:#1D71B8"/>
		<stop  offset="0.2524" style="stop-color:#896E89;stop-opacity:0.9057"/>
		<stop  offset="0.5206" style="stop-color:#C36253;stop-opacity:0.8055"/>
		<stop  offset="0.7106" style="stop-color:#DF552C;stop-opacity:0.7345"/>
		<stop  offset="0.803" style="stop-color:#E94E1B;stop-opacity:0.7"/>
		<stop  offset="1" style="stop-color:#E94E1B;stop-opacity:0.5"/>
	</linearGradient>
	
		<rect x="-185" y="-147" display="inline" fill="url(#SVGID_8_)" stroke="#000000" stroke-miterlimit="10" width="1950" height="894"/>
</g>
<g id="Capa_14" display="none">
	<g display="inline" opacity="0.7">
		<g>
			<g>
				<path id="XMLID_595_" fill="#3F92CB" d="M640.463,417.619h-48.484c-1.45,0-2.694-1.243-2.694-2.693V287.843
					c0-1.45,1.244-2.694,2.694-2.694h48.484c1.451,0,2.694,1.244,2.694,2.694v127.083
					C643.157,416.376,641.982,417.619,640.463,417.619z"/>
				<path fill="#010202" d="M712.224,95.837v54.701c0,3.453,2.832,6.285,6.285,6.285c3.454,0,6.285-2.832,6.285-6.285V95.837
					c0-3.454-2.831-6.285-6.285-6.285C714.986,89.552,712.224,92.383,712.224,95.837z"/>
				<path fill="#010202" d="M832.123,212.49h-54.7c-3.453,0-6.285,2.832-6.285,6.286c0,3.452,2.832,6.284,6.285,6.284h54.7
					c3.454,0,6.286-2.832,6.286-6.284C838.409,215.322,835.577,212.49,832.123,212.49z"/>
				<path fill="#010202" d="M598.54,218.776c0,3.452,2.832,6.284,6.286,6.284h54.7c3.454,0,6.286-2.832,6.286-6.284
					c0-3.454-2.832-6.286-6.286-6.286h-54.7C601.371,212.49,598.54,215.322,598.54,218.776z"/>
				<path fill="#010202" d="M632.521,131.613c1.174-1.174,1.865-2.763,1.865-4.42s-0.691-3.246-1.865-4.42
					c-1.174-1.175-2.763-1.865-4.42-1.865s-3.246,0.69-4.42,1.865c-1.174,1.174-1.865,2.763-1.865,4.42s0.69,3.246,1.865,4.42
					c1.174,1.175,2.762,1.865,4.42,1.865S631.346,132.788,632.521,131.613z"/>
				<path fill="#010202" d="M649.442,148.535c-2.418,2.417-2.418,6.423,0,8.84c1.243,1.244,2.832,1.865,4.42,1.865
					s3.246-0.621,4.42-1.865c2.417-2.417,2.417-6.423,0-8.84C655.865,146.118,651.859,146.118,649.442,148.535z"/>
				<path fill="#010202" d="M645.436,144.528c2.417-2.416,2.417-6.423,0-8.84s-6.423-2.417-8.84,0c-2.417,2.417-2.417,6.424,0,8.84
					c1.243,1.244,2.831,1.796,4.42,1.796C642.604,146.394,644.193,145.772,645.436,144.528z"/>
				<path fill="#010202" d="M662.357,161.45c-1.174,1.175-1.796,2.763-1.796,4.421c0,1.657,0.691,3.246,1.865,4.42
					c1.174,1.174,2.762,1.864,4.42,1.864c1.658,0,3.246-0.69,4.42-1.864s1.865-2.763,1.865-4.42c0-1.658-0.69-3.246-1.865-4.421
					c-1.174-1.174-2.762-1.865-4.42-1.865C665.121,159.585,663.463,160.276,662.357,161.45z"/>
				<path fill="#010202" d="M798.557,126.778c-1.174,1.175-1.864,2.764-1.864,4.421s0.69,3.246,1.864,4.42
					c1.175,1.175,2.764,1.865,4.421,1.865s3.246-0.69,4.421-1.865c1.174-1.174,1.795-2.763,1.795-4.42s-0.69-3.246-1.795-4.421
					c-1.175-1.174-2.764-1.795-4.421-1.795C801.389,124.914,799.731,125.604,798.557,126.778z"/>
				<path fill="#010202" d="M777.216,163.177c1.589,0,3.177-0.621,4.42-1.796c2.418-2.417,2.418-6.423,0-8.84
					c-2.417-2.418-6.423-2.418-8.841,0c-2.417,2.417-2.417,6.423,0,8.84C774.038,162.625,775.627,163.177,777.216,163.177z"/>
				<path fill="#010202" d="M785.711,139.626c-2.417,2.417-2.417,6.423,0,8.84c1.243,1.243,2.832,1.864,4.42,1.864
					c1.589,0,3.178-0.621,4.42-1.864c2.418-2.417,2.418-6.423,0-8.84C792.135,137.208,788.129,137.208,785.711,139.626z"/>
				<path fill="#010202" d="M758.084,169.877c0,1.657,0.691,3.246,1.865,4.42s2.762,1.864,4.42,1.864c1.657,0,3.246-0.69,4.42-1.864
					c1.175-1.174,1.865-2.763,1.865-4.42c0-1.658-0.69-3.246-1.865-4.421c-1.174-1.174-2.763-1.796-4.42-1.796
					c-1.658,0-3.246,0.691-4.42,1.796C758.775,166.562,758.084,168.219,758.084,169.877z"/>
				<path fill="#010202" d="M837.304,299.653c0-19.478-15.816-35.294-35.293-35.294h-54.839v-39.575
					c0-16.645-4.835-28.662-14.504-35.707c-15.195-11.188-36.122-4.766-36.952-4.489c-2.625,0.829-4.351,3.246-4.351,5.939v44.341
					c0,34.948-40.542,46.896-42.269,47.38c-0.829,0.208-1.52,0.622-2.141,1.105c-2.142-2.693-5.457-4.42-9.118-4.42h-43.166
					c-6.423,0-11.672,5.249-11.672,11.672v121.627c0,6.423,5.249,11.672,11.672,11.672h43.028c4.282,0,8.081-2.349,10.083-5.87
					c6.354,6.077,14.918,9.808,24.381,9.808H780.6c23.967,0,39.23-12.57,41.924-34.465l14.572-92.757
					C837.234,300.344,837.304,299.998,837.304,299.653z M636.94,411.334h-41.371V291.435h41.371V411.334L636.94,411.334z
					 M810.229,391.581c0,0.068,0,0.138,0,0.208c-1.935,15.608-11.88,23.551-29.56,23.551H672.234
					c-12.57,0-22.792-10.222-22.792-22.792v-98.213c0.966,0.207,2.002,0.207,2.97-0.069c2.072-0.553,51.386-14.918,51.386-59.397
					v-39.299c5.387-0.829,14.711-1.312,21.411,3.592c6.215,4.559,9.393,13.191,9.393,25.623v45.861c0,3.453,2.832,6.284,6.285,6.284
					h61.124c12.433,0,22.517,9.946,22.792,22.309L810.229,391.581z"/>
			</g>
		</g>
		<g>
		</g>
		<g>
		</g>
		<g>
		</g>
		<g>
		</g>
		<g>
		</g>
		<g>
		</g>
		<g>
		</g>
		<g>
		</g>
		<g>
		</g>
		<g>
		</g>
		<g>
		</g>
		<g>
		</g>
		<g>
		</g>
		<g>
		</g>
		<g>
		</g>
		<line fill="none" x1="869.869" y1="871" x2="917.711" y2="823.158"/>
	</g>
</g>
<g id="Capa_15">
	<polygon fill="none" stroke="#DADADA" stroke-miterlimit="10" points="263,243 -128.487,361.075 -426.487,81.076 -333,-317 
		58.487,-435.076 356.487,-155.076 	"/>
	<polygon fill="none" stroke="#DADADA" stroke-miterlimit="10" points="71,299 820.922,76.098 1388.922,614.098 1207,1375 
		457.078,1597.902 -110.922,1059.902 	"/>
	<polygon fill="none" stroke="#DADADA" stroke-miterlimit="10" points="839,89 1008.867,-621.218 1708.867,-829.218 2239,-327 
		2069.133,383.218 1369.133,591.218 	"/>
	<polygon fill="none" stroke="#DADADA" stroke-miterlimit="10" points="993,423 1383.41,546.79 1471.41,946.79 1169,1223 
		778.59,1099.21 690.59,699.21 	"/>
	<polygon fill="none" stroke="#DADADA" stroke-miterlimit="10" points="0,9 886.406,221.699 1145.406,1095.699 518,1757 
		-368.406,1544.301 -627.406,670.301 	"/>
	<polygon fill="none" stroke="#DADADA" stroke-miterlimit="10" points="279,500 106.151,-710.616 1068.15,-1465.616 2203,-1010 
		2375.85,200.617 1413.85,955.616 	"/>
	<polygon fill="none" stroke="#DADADA" stroke-miterlimit="10" points="549,327 946.889,609.837 900.889,1095.837 457,1299 
		59.112,1016.163 105.112,530.163 	"/>
	<polygon fill="none" stroke="#DADADA" stroke-miterlimit="10" points="1095,169 973.996,-233.416 1261.996,-539.416 1671,-443 
		1792.004,-40.584 1504.004,265.415 	"/>
	<polygon fill="none" stroke="#DADADA" stroke-miterlimit="10" points="1197,151 1584.99,-73.018 1972.99,150.982 1973,599 
		1585.01,823.018 1197.01,599.018 	"/>
	<polygon fill="none" stroke="#DADADA" stroke-miterlimit="10" points="1285,203 1466.191,125.168 1624.191,243.168 1601,439 
		1419.809,516.832 1261.809,398.832 	"/>
	<polygon fill="none" stroke="#DADADA" stroke-miterlimit="10" points="411,133 507.049,-601.361 1191.049,-885.361 1779,-435 
		1682.951,299.361 998.951,583.361 	"/>
	<polygon fill="none" stroke="#DADADA" stroke-miterlimit="10" points="1105,275 559.57,479.711 109.57,109.711 205,-465 
		750.43,-669.711 1200.43,-299.711 	"/>
	<polygon fill="none" stroke="#DADADA" stroke-miterlimit="10" points="251,469 56.32,846.195 -367.68,866.194 -597,509 
		-402.32,131.805 21.68,111.805 	"/>
	<polygon fill="none" stroke="#DADADA" stroke-miterlimit="10" points="1291,155 1531.289,1122.807 813.289,1814.807 -145,1539 
		-385.29,571.193 332.71,-120.806 	"/>
	<polygon fill="none" stroke="#DADADA" stroke-miterlimit="10" points="1225,87 1087.637,-207.081 1273.637,-473.081 1597,-445 
		1734.363,-150.919 1548.363,115.081 	"/>
	<polygon fill="none" stroke="#DADADA" stroke-miterlimit="10" points="1331,381 1033.259,504.702 777.259,308.702 819,-11 
		1116.741,-134.703 1372.741,61.297 	"/>
	<polygon fill="none" stroke="#DADADA" stroke-miterlimit="10" points="793,-17 1104.735,477.059 832.735,994.059 249,1017 
		-62.735,522.941 209.265,5.941 	"/>
	<polygon fill="none" stroke="#DADADA" stroke-miterlimit="10" points="741,-101 949.301,-361.789 1279.301,-311.789 1401,-1 
		1192.699,259.788 862.699,209.789 	"/>
	<polygon fill="none" stroke="#DADADA" stroke-miterlimit="10" points="567,149 320.211,-83.55 398.211,-413.55 723,-511 
		969.788,-278.45 891.788,51.55 	"/>
	<linearGradient id="SVGID_9_" gradientUnits="userSpaceOnUse" x1="120" y1="282" x2="142" y2="282">
		<stop  offset="0" style="stop-color:#FFEF26"/>
		<stop  offset="0.0595" style="stop-color:#FFE000"/>
		<stop  offset="0.1303" style="stop-color:#FFD300"/>
		<stop  offset="0.2032" style="stop-color:#FECB00"/>
		<stop  offset="0.2809" style="stop-color:#FDC800"/>
		<stop  offset="0.6685" style="stop-color:#F18F34"/>
		<stop  offset="0.8876" style="stop-color:#E95F32"/>
		<stop  offset="1" style="stop-color:#E3312D"/>
	</linearGradient>
	<ellipse opacity="0.5" fill="url(#SVGID_9_)" stroke="#DADADA" stroke-miterlimit="10" cx="131" cy="282" rx="11" ry="10"/>
	<linearGradient id="SVGID_10_" gradientUnits="userSpaceOnUse" x1="556" y1="149" x2="578" y2="149">
		<stop  offset="0" style="stop-color:#FFEF26"/>
		<stop  offset="0.0595" style="stop-color:#FFE000"/>
		<stop  offset="0.1303" style="stop-color:#FFD300"/>
		<stop  offset="0.2032" style="stop-color:#FECB00"/>
		<stop  offset="0.2809" style="stop-color:#FDC800"/>
		<stop  offset="0.6685" style="stop-color:#F18F34"/>
		<stop  offset="0.8876" style="stop-color:#E95F32"/>
		<stop  offset="1" style="stop-color:#E3312D"/>
	</linearGradient>
	<ellipse opacity="0.5" fill="url(#SVGID_10_)" stroke="#DADADA" stroke-miterlimit="10" cx="567" cy="149" rx="11" ry="10"/>
	<linearGradient id="SVGID_11_" gradientUnits="userSpaceOnUse" x1="884" y1="145" x2="906" y2="145">
		<stop  offset="0" style="stop-color:#FFEF26"/>
		<stop  offset="0.0595" style="stop-color:#FFE000"/>
		<stop  offset="0.1303" style="stop-color:#FFD300"/>
		<stop  offset="0.2032" style="stop-color:#FECB00"/>
		<stop  offset="0.2809" style="stop-color:#FDC800"/>
		<stop  offset="0.6685" style="stop-color:#F18F34"/>
		<stop  offset="0.8876" style="stop-color:#E95F32"/>
		<stop  offset="1" style="stop-color:#E3312D"/>
	</linearGradient>
	<ellipse opacity="0.5" fill="url(#SVGID_11_)" stroke="#DADADA" stroke-miterlimit="10" cx="895" cy="145" rx="11" ry="10"/>
	<linearGradient id="SVGID_12_" gradientUnits="userSpaceOnUse" x1="172" y1="53" x2="194" y2="53">
		<stop  offset="0" style="stop-color:#FFEF26"/>
		<stop  offset="0.0595" style="stop-color:#FFE000"/>
		<stop  offset="0.1303" style="stop-color:#FFD300"/>
		<stop  offset="0.2032" style="stop-color:#FECB00"/>
		<stop  offset="0.2809" style="stop-color:#FDC800"/>
		<stop  offset="0.6685" style="stop-color:#F18F34"/>
		<stop  offset="0.8876" style="stop-color:#E95F32"/>
		<stop  offset="1" style="stop-color:#E3312D"/>
	</linearGradient>
	<ellipse opacity="0.5" fill="url(#SVGID_12_)" stroke="#DADADA" stroke-miterlimit="10" cx="183" cy="53" rx="11" ry="10"/>
	<linearGradient id="SVGID_13_" gradientUnits="userSpaceOnUse" x1="549" y1="479" x2="571" y2="479">
		<stop  offset="0" style="stop-color:#FFEF26"/>
		<stop  offset="0.0595" style="stop-color:#FFE000"/>
		<stop  offset="0.1303" style="stop-color:#FFD300"/>
		<stop  offset="0.2032" style="stop-color:#FECB00"/>
		<stop  offset="0.2809" style="stop-color:#FDC800"/>
		<stop  offset="0.6685" style="stop-color:#F18F34"/>
		<stop  offset="0.8876" style="stop-color:#E95F32"/>
		<stop  offset="1" style="stop-color:#E3312D"/>
	</linearGradient>
	<ellipse opacity="0.5" fill="url(#SVGID_13_)" stroke="#DADADA" stroke-miterlimit="10" cx="560" cy="479" rx="11" ry="10"/>
	<linearGradient id="SVGID_14_" gradientUnits="userSpaceOnUse" x1="844" y1="368" x2="866" y2="368">
		<stop  offset="0" style="stop-color:#FFEF26"/>
		<stop  offset="0.0595" style="stop-color:#FFE000"/>
		<stop  offset="0.1303" style="stop-color:#FFD300"/>
		<stop  offset="0.2032" style="stop-color:#FECB00"/>
		<stop  offset="0.2809" style="stop-color:#FDC800"/>
		<stop  offset="0.6685" style="stop-color:#F18F34"/>
		<stop  offset="0.8876" style="stop-color:#E95F32"/>
		<stop  offset="1" style="stop-color:#E3312D"/>
	</linearGradient>
	<ellipse opacity="0.5" fill="url(#SVGID_14_)" stroke="#DADADA" stroke-miterlimit="10" cx="855" cy="368" rx="11" ry="10"/>
	<linearGradient id="SVGID_15_" gradientUnits="userSpaceOnUse" x1="238" y1="465" x2="260" y2="465">
		<stop  offset="0" style="stop-color:#FFEF26"/>
		<stop  offset="0.0595" style="stop-color:#FFE000"/>
		<stop  offset="0.1303" style="stop-color:#FFD300"/>
		<stop  offset="0.2032" style="stop-color:#FECB00"/>
		<stop  offset="0.2809" style="stop-color:#FDC800"/>
		<stop  offset="0.6685" style="stop-color:#F18F34"/>
		<stop  offset="0.8876" style="stop-color:#E95F32"/>
		<stop  offset="1" style="stop-color:#E3312D"/>
	</linearGradient>
	<ellipse opacity="0.5" fill="url(#SVGID_15_)" stroke="#DADADA" stroke-miterlimit="10" cx="249" cy="465" rx="11" ry="10"/>
	<linearGradient id="SVGID_16_" gradientUnits="userSpaceOnUse" x1="1111" y1="175" x2="1133" y2="175">
		<stop  offset="0" style="stop-color:#FFEF26"/>
		<stop  offset="0.0595" style="stop-color:#FFE000"/>
		<stop  offset="0.1303" style="stop-color:#FFD300"/>
		<stop  offset="0.2032" style="stop-color:#FECB00"/>
		<stop  offset="0.2809" style="stop-color:#FDC800"/>
		<stop  offset="0.6685" style="stop-color:#F18F34"/>
		<stop  offset="0.8876" style="stop-color:#E95F32"/>
		<stop  offset="1" style="stop-color:#E3312D"/>
	</linearGradient>
	<ellipse opacity="0.5" fill="url(#SVGID_16_)" stroke="#DADADA" stroke-miterlimit="10" cx="1122" cy="175" rx="11" ry="10"/>
	<linearGradient id="SVGID_17_" gradientUnits="userSpaceOnUse" x1="946" y1="451" x2="968" y2="451">
		<stop  offset="0" style="stop-color:#FFEF26"/>
		<stop  offset="0.0595" style="stop-color:#FFE000"/>
		<stop  offset="0.1303" style="stop-color:#FFD300"/>
		<stop  offset="0.2032" style="stop-color:#FECB00"/>
		<stop  offset="0.2809" style="stop-color:#FDC800"/>
		<stop  offset="0.6685" style="stop-color:#F18F34"/>
		<stop  offset="0.8876" style="stop-color:#E95F32"/>
		<stop  offset="1" style="stop-color:#E3312D"/>
	</linearGradient>
	<ellipse opacity="0.5" fill="url(#SVGID_17_)" stroke="#DADADA" stroke-miterlimit="10" cx="957" cy="451" rx="11" ry="10"/>
	<linearGradient id="SVGID_18_" gradientUnits="userSpaceOnUse" x1="971" y1="228" x2="993" y2="228">
		<stop  offset="0" style="stop-color:#FFEF26"/>
		<stop  offset="0.0595" style="stop-color:#FFE000"/>
		<stop  offset="0.1303" style="stop-color:#FFD300"/>
		<stop  offset="0.2032" style="stop-color:#FECB00"/>
		<stop  offset="0.2809" style="stop-color:#FDC800"/>
		<stop  offset="0.6685" style="stop-color:#F18F34"/>
		<stop  offset="0.8876" style="stop-color:#E95F32"/>
		<stop  offset="1" style="stop-color:#E3312D"/>
	</linearGradient>
	<ellipse opacity="0.5" fill="url(#SVGID_18_)" stroke="#DADADA" stroke-miterlimit="10" cx="982" cy="228" rx="11" ry="10"/>
	<linearGradient id="SVGID_19_" gradientUnits="userSpaceOnUse" x1="256" y1="240" x2="278" y2="240">
		<stop  offset="0" style="stop-color:#FFEF26"/>
		<stop  offset="0.0595" style="stop-color:#FFE000"/>
		<stop  offset="0.1303" style="stop-color:#FFD300"/>
		<stop  offset="0.2032" style="stop-color:#FECB00"/>
		<stop  offset="0.2809" style="stop-color:#FDC800"/>
		<stop  offset="0.6685" style="stop-color:#F18F34"/>
		<stop  offset="0.8876" style="stop-color:#E95F32"/>
		<stop  offset="1" style="stop-color:#E3312D"/>
	</linearGradient>
	<ellipse opacity="0.5" fill="url(#SVGID_19_)" stroke="#DADADA" stroke-miterlimit="10" cx="267" cy="240" rx="11" ry="10"/>
</g>
</svg>
