<?xml version="1.0" encoding="utf-8"?>
<!-- Generator: Adobe Illustrator 16.0.0, SVG Export Plug-In . SVG Version: 6.00 Build 0)  -->
<!DOCTYPE svg PUBLIC "-//W3C//DTD SVG 1.1//EN" "http://www.w3.org/Graphics/SVG/1.1/DTD/svg11.dtd">
<svg version="1.1" xmlns="http://www.w3.org/2000/svg" xmlns:xlink="http://www.w3.org/1999/xlink" x="0px" y="0px" width="1392px"
	 height="500px" viewBox="0 0 1392 500" enable-background="new 0 0 1392 500" xml:space="preserve">
<g id="Capa_2" display="none">
	<linearGradient id="SVGID_1_" gradientUnits="userSpaceOnUse" x1="695.9995" y1="-1" x2="695.9995" y2="545.8501">
		<stop  offset="0" style="stop-color:#DADADA"/>
		<stop  offset="0.0078" style="stop-color:#D4D9DB"/>
		<stop  offset="0.0513" style="stop-color:#B1CFE0"/>
		<stop  offset="0.0962" style="stop-color:#85C3E3"/>
		<stop  offset="0.1414" style="stop-color:#4BB8E4"/>
		<stop  offset="0.1871" style="stop-color:#00AFE4"/>
		<stop  offset="0.2332" style="stop-color:#00A7E4"/>
		<stop  offset="0.2801" style="stop-color:#00A3E4"/>
		<stop  offset="0.3282" style="stop-color:#00A0E4"/>
		<stop  offset="0.3794" style="stop-color:#009FE3"/>
		<stop  offset="0.6685" style="stop-color:#1D71B8"/>
		<stop  offset="0.8876" style="stop-color:#312783"/>
		<stop  offset="1" style="stop-color:#312783"/>
	</linearGradient>
	<linearGradient id="SVGID_2_" gradientUnits="userSpaceOnUse" x1="-0.5" y1="272.4248" x2="1392.5" y2="272.4248">
		<stop  offset="0" style="stop-color:#FFEF26"/>
		<stop  offset="0.0595" style="stop-color:#FFE000"/>
		<stop  offset="0.1303" style="stop-color:#FFD300"/>
		<stop  offset="0.2032" style="stop-color:#FECB00"/>
		<stop  offset="0.2809" style="stop-color:#FDC800"/>
		<stop  offset="0.6685" style="stop-color:#F18F34"/>
		<stop  offset="0.8876" style="stop-color:#E95F32"/>
		<stop  offset="1" style="stop-color:#E3312D"/>
	</linearGradient>
	
		<rect y="-1" display="inline" opacity="0.8" fill="url(#SVGID_1_)" stroke="url(#SVGID_2_)" stroke-miterlimit="10" width="1392" height="546.85"/>
</g>
<g id="Capa_1" display="none">
	<g display="inline" opacity="0.5">
		<g>
			<polygon fill="none" stroke="#F6F6F6" stroke-width="4" stroke-miterlimit="10" points="713.607,421.895 829.688,383.966 
				920.572,465.524 895.385,585.016 779.311,622.947 688.418,541.388 			"/>
		</g>
		<g>
			<polygon fill="none" stroke="#F6F6F6" stroke-width="4" stroke-miterlimit="10" points="571.469,578.115 687.55,540.184 
				778.438,621.743 753.247,741.235 637.174,779.166 546.283,697.607 			"/>
		</g>
		<g>
			<polygon fill="none" stroke="#F6F6F6" stroke-width="4" stroke-miterlimit="10" points="507.995,377.21 624.073,339.277 
				714.963,420.838 689.772,540.33 573.697,578.261 482.807,496.702 			"/>
		</g>
		<g>
			<polygon fill="none" stroke="#F6F6F6" stroke-width="4" stroke-miterlimit="10" points="543.324,477.389 659.401,439.459 
				750.292,521.018 725.101,640.509 609.025,678.438 518.136,596.882 			"/>
		</g>
	</g>
	<g display="inline" opacity="0.5">
		<polygon fill="none" stroke="#F6F6F6" stroke-width="4" stroke-miterlimit="10" points="115.851,426.362 -6.656,214.171 
			115.851,1.984 360.867,1.984 483.371,214.171 360.867,426.362 		"/>
	</g>
	<g display="inline" opacity="0.5">
		<polygon fill="none" stroke="#F6F6F6" stroke-width="4" stroke-miterlimit="10" points="237.221,216.198 114.714,4.008 
			237.221,-208.179 482.236,-208.179 604.74,4.008 482.236,216.198 		"/>
	</g>
	<g display="inline" opacity="0.5">
		<polygon fill="none" stroke="#F6F6F6" stroke-width="4" stroke-miterlimit="10" points="-130.167,426 -252.672,213.808 
			-130.167,1.623 114.849,1.623 237.353,213.808 114.849,426 		"/>
	</g>
	<g display="inline" opacity="0.5">
		<polygon fill="none" stroke="#F6F6F6" stroke-width="4" stroke-miterlimit="10" points="-249.536,208.282 -372.043,-3.908 
			-249.536,-216.095 -4.521,-216.095 117.983,-3.908 -4.521,208.282 		"/>
	</g>
	<g display="inline" opacity="0.5">
		<g>
			<polygon fill="none" stroke="#F6F6F6" stroke-width="4" stroke-miterlimit="10" points="1391.998,-153.263 1253.584,-73.351 
				1115.173,-153.263 1115.173,-313.088 1253.584,-392.999 1391.998,-313.088 			"/>
		</g>
		<g>
			<polygon fill="none" stroke="#F6F6F6" stroke-width="4" stroke-miterlimit="10" points="1391.997,166.386 1253.582,246.297 
				1115.171,166.386 1115.171,6.561 1253.582,-73.351 1391.997,6.561 			"/>
		</g>
		<g>
			<polygon fill="none" stroke="#F6F6F6" stroke-width="4" stroke-miterlimit="10" points="1253.584,408.739 1115.168,488.651 
				976.758,408.739 976.758,248.913 1115.168,169.002 1253.584,248.913 			"/>
		</g>
		<g>
			<polygon fill="none" stroke="#F6F6F6" stroke-width="4" stroke-miterlimit="10" points="1391.998,-153.263 1253.584,-73.351 
				1115.173,-153.263 1115.173,-313.088 1253.584,-392.999 1391.998,-313.088 			"/>
		</g>
		<g>
			<polygon fill="none" stroke="#F6F6F6" stroke-width="4" stroke-miterlimit="10" points="1391.997,166.386 1253.582,246.297 
				1115.171,166.386 1115.171,6.561 1253.582,-73.351 1391.997,6.561 			"/>
		</g>
		<g>
			<polygon fill="none" stroke="#F6F6F6" stroke-width="4" stroke-miterlimit="10" points="1253.584,408.739 1115.168,488.651 
				976.758,408.739 976.758,248.913 1115.168,169.002 1253.584,248.913 			"/>
		</g>
		<g>
			<polygon fill="none" stroke="#F6F6F6" stroke-width="4" stroke-miterlimit="10" points="1387.866,486.619 1249.452,566.531 
				1111.041,486.619 1111.041,326.793 1249.452,246.884 1387.866,326.793 			"/>
		</g>
		<g>
			<polygon fill="none" stroke="#F6F6F6" stroke-width="4" stroke-miterlimit="10" points="1254.31,163.422 1115.896,243.332 
				977.483,163.422 977.483,3.596 1115.896,-76.315 1254.31,3.596 			"/>
		</g>
		<g>
			<polygon fill="none" stroke="#F6F6F6" stroke-width="4" stroke-miterlimit="10" points="1257.024,-73.111 1118.61,6.8 
				980.199,-73.111 980.199,-232.937 1118.61,-312.848 1257.024,-232.937 			"/>
		</g>
	</g>
</g>
<g id="Capa_3">
	<linearGradient id="SVGID_3_" gradientUnits="userSpaceOnUse" x1="681.0005" y1="529" x2="681.0005" y2="-46.9995">
		<stop  offset="0" style="stop-color:#36A9E1"/>
		<stop  offset="0.0189" style="stop-color:#32A0DA"/>
		<stop  offset="0.0861" style="stop-color:#2A81C2"/>
		<stop  offset="0.1549" style="stop-color:#2B66AD"/>
		<stop  offset="0.2241" style="stop-color:#2E519C"/>
		<stop  offset="0.2939" style="stop-color:#2F4190"/>
		<stop  offset="0.3646" style="stop-color:#2E3688"/>
		<stop  offset="0.4367" style="stop-color:#2D3085"/>
		<stop  offset="0.5124" style="stop-color:#2D2E83"/>
		<stop  offset="0.6341" style="stop-color:#2D2E83"/>
		<stop  offset="0.7063" style="stop-color:#2D3789"/>
		<stop  offset="0.8496" style="stop-color:#2A519D"/>
		<stop  offset="1" style="stop-color:#1D71B8"/>
	</linearGradient>
	
		<rect x="-55" y="-47" fill="url(#SVGID_3_)" stroke="#F6F6F6" stroke-width="4" stroke-miterlimit="10" width="1472" height="576"/>
</g>
<g id="nubes">
	<g opacity="0.6">
		<path fill="#FFFFFF" d="M532.374,370.96l-8.999,7.943c5.363,6.072,11.146,11.838,17.201,17.135l7.901-9.035
			C542.813,382.054,537.396,376.647,532.374,370.96z"/>
		<path fill="#FFFFFF" d="M603.402,432.244c7.645,2.585,15.552,4.691,23.502,6.258l2.315-11.779
			c-7.435-1.458-14.826-3.427-21.978-5.85L603.402,432.244z"/>
		<path fill="#FFFFFF" d="M492.402,290.428l-11.766,2.357c1.59,7.914,3.72,15.81,6.336,23.46l11.357-3.876
			C495.883,305.206,493.885,297.825,492.402,290.428z"/>
		<path fill="#FFFFFF" d="M496.332,338.656c3.588,7.225,7.698,14.293,12.209,20.994l9.955-6.689
			c-4.218-6.276-8.058-12.883-11.417-19.645L496.332,338.656z"/>
		<path fill="#FFFFFF" d="M651.769,429.64l-0.768,11.982c3.966,0.252,7.968,0.378,12,0.378c4.11,0,8.249-0.132,12.287-0.396
			l-0.785-11.976C666.99,430.12,659.285,430.125,651.769,429.64z"/>
		<path fill="#FFFFFF" d="M697.044,426.669l2.339,11.766c7.927-1.571,15.822-3.684,23.479-6.281l-3.864-11.371
			C711.846,423.22,704.46,425.193,697.044,426.669z"/>
		<g>
			<path fill="#009FE3" d="M663.001,268.001c-6.631,0-12-5.37-12-12.001c0-6.63,5.369-12,12-12c2.196,0,4.229,0.637,6.001,1.662
				V76.15c-1.998-0.067-3.99-0.15-6.001-0.15c-99.415,0-180,80.585-180,180c0,99.416,80.585,180,180,180
				c2.009,0,4.003-0.084,6.001-0.149V266.338C667.23,267.364,665.195,268.001,663.001,268.001z"/>
			<path fill="#FFFFFF" d="M836.622,267.609l11.977,0.786C848.862,264.304,849,260.128,849,256h-12
				C837,259.899,836.874,263.77,836.622,267.609z"/>
			<path fill="#FFFFFF" d="M559.873,410.817c6.73,4.488,13.813,8.58,21.053,12.144l5.305-10.77
				c-6.774-3.336-13.398-7.151-19.698-11.364L559.873,410.817z"/>
			<path fill="#FFFFFF" d="M807.618,352.791l9.965,6.678c4.501-6.713,8.605-13.794,12.187-21.035l-10.752-5.322
				C815.664,339.88,811.83,346.504,807.618,352.791z"/>
			<path fill="#FFFFFF" d="M827.748,312.123l11.364,3.869c2.604-7.638,4.728-15.546,6.307-23.49l-11.772-2.347
				C832.171,297.586,830.185,304.972,827.748,312.123z"/>
			<path fill="#FFFFFF" d="M777.672,386.878l7.908,9.023c6.06-5.31,11.844-11.089,17.184-17.166l-9.012-7.92
				C788.754,376.498,783.342,381.904,777.672,386.878z"/>
			<path fill="#FFFFFF" d="M739.969,412.102l5.315,10.758c7.224-3.569,14.298-7.661,21.024-12.162l-6.672-9.973
				C753.342,404.933,746.724,408.759,739.969,412.102z"/>
			<path fill="#FFFFFF" d="M489,256c0-95.946,78.055-174,174.001-174c30.869,0,60.774,8.112,87.196,23.453l-17.43,6.972
				l4.459,11.143l33.774-13.507V76h-12v20.796C730.067,79.305,697.093,70,663.001,70C560.441,70,477,153.441,477,256
				c0,4.128,0.138,8.304,0.402,12.391l11.976-0.786C489.125,263.77,489,259.899,489,256z"/>
			<path fill="#FFFFFF" d="M795,214c0-3.457-1.026-6.66-2.724-9.402l32.874-51.654c1.842,0.636,3.791,1.056,5.849,1.056
				c9.925,0,18.001-8.075,18.001-18.001c0-9.925-8.076-17.999-17.999-17.999c-9.924,0-18.001,8.076-18.001,18
				c0,3.457,1.026,6.66,2.724,9.402l-32.874,51.654C781.008,196.42,779.057,196,777,196c-4.733,0-9.013,1.873-12.228,4.867
				l-24.024-14.413c0.113-0.81,0.252-1.614,0.252-2.454c0-9.924-8.076-18-18-18c-9.926,0-18.001,8.075-18.001,18
				c0,3.114,0.87,6.006,2.268,8.562l-37.44,46.801c-0.264-0.107-0.558-0.163-0.828-0.259V106h-6c-82.71,0-150,67.29-150,150
				c0,82.711,67.291,150,150.003,150H669V272.896c6.965-2.484,12-9.084,12-16.896c0-3.114-0.871-6.006-2.269-8.562l37.44-46.801
				c2.112,0.871,4.41,1.362,6.828,1.362c4.732,0,9.012-1.872,12.228-4.866l24.023,14.412c-0.113,0.81-0.252,1.614-0.252,2.453
				c0,9.924,8.076,18.001,18.001,18.001C786.926,231.999,795,223.924,795,214z M831.001,130c3.306,0,6.001,2.695,6.001,6
				c0,3.307-2.695,6.001-6.001,6.001c-3.307,0-6.001-2.694-6.001-6.001C825,132.694,827.694,130,831.001,130z M657,189.741
				c-18.072-0.913-34.428-5.725-48.156-11.796c15.197-29.731,36.366-47.226,48.156-55.26V189.741z M598.338,172.833
				c-13.008-6.918-22.771-14.269-28.199-18.78c19.469-17.749,44.01-30.006,71.172-34.314
				C628.386,130.299,611.34,147.617,598.338,172.833z M593.185,183.838c-7.825,18.33-13.296,40.266-14.046,66.161H525.15
				c1.445-33.646,15.012-64.194,36.412-87.42C567.39,167.56,578.322,176.002,593.185,183.838z M579.137,262
				c0.744,25.902,6.223,47.837,14.047,66.161c-14.863,7.836-25.795,16.278-31.621,21.252
				c-21.406-23.219-34.967-53.765-36.412-87.413H579.137z M598.338,339.166c13.002,25.218,30.048,42.534,42.973,53.094
				c-27.169-4.308-51.709-16.565-71.172-34.313C575.567,353.435,585.33,346.078,598.338,339.166z M609.078,333.957
				c13.681-6.029,29.951-10.788,47.922-11.693v66.93C645.313,381.058,624.282,363.43,609.078,333.957z M657,310.252
				c-20.076,0.906-38.064,6.095-53.045,12.701c-7.105-16.89-12.086-37.092-12.812-60.948h54.966
				c1.813,5.082,5.814,9.084,10.897,10.896v37.351H657L657,310.252z M646.104,249.999h-54.972
				c0.715-23.952,5.616-44.171,12.624-61.031c15.024,6.641,33.085,11.874,53.245,12.779v37.356
				C651.918,240.916,647.916,244.918,646.104,249.999z M663.001,262c-3.307,0-6.001-2.695-6.001-6.001c0-3.307,2.694-6,6.001-6
				c3.306,0,6.001,2.693,6.001,6C669,259.305,666.306,262,663.001,262z M723.001,190c-3.307,0-6.001-2.695-6.001-6.001
				c0-3.307,2.694-6,6.001-6c3.306,0,6,2.694,6,6C729.001,187.305,726.306,190,723.001,190z M777,220c-3.306,0-6.001-2.693-6.001-6
				s2.695-6.001,6.001-6.001c3.307,0,6,2.694,6,6.001S780.307,220,777,220z"/>
		</g>
	</g>
</g>
</svg>
