<?xml version="1.0" standalone="no"?>
<!DOCTYPE svg PUBLIC "-//W3C//DTD SVG 20010904//EN"
 "http://www.w3.org/TR/2001/REC-SVG-20010904/DTD/svg10.dtd">
<svg version="1.0" xmlns="http://www.w3.org/2000/svg"
 width="260.000000pt" height="260.000000pt" viewBox="0 0 260.000000 260.000000"
 preserveAspectRatio="xMidYMid meet">
<metadata>
Created by potrace 1.11, written by Peter Selinger 2001-2013
</metadata>
<g transform="translate(0.000000,260.000000) scale(0.100000,-0.100000)"
fill="#000000" stroke="none">
<path d="M1200 2174 c-30 -6 -55 -13 -55 -14 0 -1 -7 -3 -15 -5 -58 -13 -174
-82 -229 -136 -56 -56 -112 -146 -98 -156 17 -13 80 -38 90 -35 4 1 7 -2 7 -8
0 -5 8 -10 18 -10 10 0 23 -5 29 -11 7 -7 15 -3 25 13 79 117 200 180 356 182
50 1 92 -2 92 -6 0 -4 8 -8 18 -8 20 0 119 -47 142 -67 49 -43 92 -92 103
-115 6 -16 16 -28 20 -28 5 0 5 -4 2 -10 -3 -5 -1 -10 5 -10 6 0 9 -4 5 -9 -9
-16 13 -23 83 -27 60 -3 103 -9 110 -14 1 -2 7 -4 12 -5 6 -1 11 -3 13 -5 1
-1 9 -3 18 -5 30 -6 133 -57 163 -81 57 -45 106 -94 106 -104 0 -5 4 -10 10
-10 8 0 40 -62 41 -80 1 -3 5 -10 11 -17 19 -24 13 -125 -12 -176 -54 -112
-216 -175 -345 -134 -99 32 -145 53 -250 111 -10 6 -30 21 -44 34 -14 12 -29
22 -33 22 -4 0 -15 8 -25 18 -10 10 -47 42 -83 72 -36 30 -67 57 -70 61 -3 3
-32 25 -65 50 -33 24 -66 50 -73 57 -28 26 -140 102 -151 102 -6 0 -11 4 -11
8 0 8 -128 85 -132 80 -2 -2 -16 6 -33 18 -25 17 -158 78 -175 79 -3 1 -14 4
-25 8 -85 28 -273 24 -335 -8 -15 -8 -31 -11 -34 -7 -4 3 -10 2 -14 -4 -4 -6
-35 -26 -70 -44 -35 -18 -91 -61 -126 -95 -59 -60 -133 -175 -119 -189 3 -3 0
-6 -7 -6 -7 0 -11 -2 -8 -6 3 -3 0 -24 -7 -47 -6 -23 -13 -71 -14 -107 -6
-204 129 -397 354 -506 33 -16 62 -29 65 -29 3 -1 21 -6 40 -13 56 -18 143
-33 205 -35 27 -1 46 -8 57 -22 10 -11 22 -25 28 -32 5 -7 10 -16 10 -21 0 -5
27 -34 60 -63 61 -55 132 -97 210 -124 3 -1 13 -5 22 -9 9 -4 22 -5 28 -1 5 3
10 2 10 -3 0 -12 28 -14 155 -14 94 -1 132 4 180 19 11 4 22 8 25 8 3 1 22 9
44 18 21 9 40 17 43 17 2 0 20 12 39 26 19 15 34 24 34 21 0 -9 81 74 115 119
42 54 44 71 10 80 -14 3 -25 9 -25 13 0 3 -23 17 -50 30 l-49 25 -22 -28
c-155 -197 -423 -217 -607 -46 -24 22 -39 40 -35 40 4 0 3 4 -3 8 -14 10 -66
99 -62 108 2 4 -35 8 -82 11 -116 5 -130 7 -130 14 0 4 -14 9 -30 13 -31 6
-141 54 -150 66 -3 3 -21 17 -40 30 -55 38 -113 108 -141 170 -10 22 -18 43
-19 45 0 3 0 6 -1 8 -7 16 -3 82 8 119 30 105 173 191 318 192 53 0 134 -16
170 -32 22 -11 55 -25 73 -33 17 -8 32 -17 32 -21 0 -5 6 -8 13 -8 8 0 42 -18
76 -40 34 -22 64 -40 66 -40 6 0 122 -89 186 -142 24 -20 64 -53 89 -72 25
-20 54 -45 65 -55 144 -128 389 -283 432 -273 7 2 13 -1 13 -6 0 -5 6 -9 13
-9 6 0 26 -4 42 -7 112 -25 180 -26 273 -2 12 3 32 8 44 11 60 13 258 168 258
202 0 7 3 13 8 13 7 0 46 64 48 79 0 3 9 24 19 46 21 47 29 181 14 240 -5 22
-12 49 -14 60 -11 50 -66 134 -131 201 -38 41 -74 74 -79 74 -5 0 -16 6 -24
14 -38 32 -159 88 -221 101 -8 2 -15 4 -15 6 0 1 -9 3 -20 4 -11 2 -38 6 -60
10 -22 4 -56 9 -75 10 -19 2 -38 4 -42 4 -4 1 -20 20 -34 43 -39 61 -55 79
-129 142 -30 26 -139 84 -141 75 0 -2 -8 2 -17 10 -10 7 -17 10 -17 6 0 -4 -6
-2 -14 4 -8 7 -31 14 -52 16 -22 2 -39 5 -39 6 0 8 -202 3 -245 -7z"/>
</g>
</svg>
